<svg width="172" height="172" viewBox="0 0 172 172" fill="none" xmlns="http://www.w3.org/2000/svg">
<g clip-path="url(#clip0)">
<rect opacity="0.6" x="75.3047" y="14.486" width="10.7956" height="10.7956" transform="rotate(114.553 75.3047 14.486)" fill="#FFDE9E"/>
<path opacity="0.6" d="M154.716 107.806L152.313 94.8051L164.774 99.2245L154.716 107.806Z" fill="#FFDE9E"/>
<path opacity="0.6" d="M6.15643 95.6769L15.7354 106.459L1.60805 109.364L6.15643 95.6769Z" fill="#FFDE9E"/>
<circle cx="83.5" cy="87.5" r="57.5" fill="#FFDE9E"/>
<path d="M143 126C143 129.205 140.402 131.803 137.197 131.803H30.8033C27.5982 131.803 25 129.205 25 126V48.9482C25 46.4833 26.9675 44.48 29.3885 44.48H138.611C141.032 44.48 143 46.4833 143 48.9482V126Z" fill="#203248"/>
<path d="M141.065 125.726C141.065 127.863 139.333 129.595 137.196 129.595H30.8024C28.6657 129.595 26.9336 127.863 26.9336 125.726V57.5348C26.9336 56.7383 27.5977 56.0867 28.4094 56.0867H139.589C140.401 56.0867 141.065 56.7383 141.065 57.5348V125.726Z" fill="white"/>
<path d="M26.9336 57.3796C26.9336 56.6655 27.5125 56.0867 28.2265 56.0867H139.772C140.486 56.0867 141.065 56.6655 141.065 57.3796V87.0375H26.9336V57.3796Z" fill="#B3E9DD"/>
<rect x="45.6445" y="65.4781" width="9.53108" height="11.6972" fill="white"/>
<path d="M45.6445 77.4112V65.5448H55.1756V77.4112" stroke="#203248" stroke-width="0.866462"/>
<path d="M44.3438 77.4111L56.4742 77.4111" stroke="#203248" stroke-width="0.866462"/>
<path d="M48.2422 73.2008V76.025" stroke="#203248" stroke-width="0.866462"/>
<path d="M50.5156 73.2009V76.0251" stroke="#203248" stroke-width="0.866462"/>
<path d="M52.793 73.2009V76.0251" stroke="#203248" stroke-width="0.866462"/>
<path fill-rule="evenodd" clip-rule="evenodd" d="M49.9764 69.8107V71.5437H50.8428V69.8107H52.5745V68.9442H50.8428V67.2114H49.9764V68.9442H48.2422V69.8107H49.9764Z" fill="#203248"/>
<rect opacity="0.8" x="63.4062" y="66.5079" width="37.8624" height="3.87877" rx="1.93939" fill="white"/>
<rect opacity="0.8" x="63.4062" y="73.6189" width="22.5128" height="3.87877" rx="1.93939" fill="white"/>
<path d="M119.023 96.6708C120.858 96.6708 122.34 98.1691 122.34 100.012C122.34 101.855 120.853 103.353 119.023 103.353L122.921 107.28" stroke="#203248" stroke-width="0.866462" stroke-miterlimit="10" stroke-linecap="square" stroke-linejoin="round"/>
<path d="M117.562 96.6708H125.309" stroke="#203248" stroke-width="0.866462" stroke-miterlimit="10" stroke-linecap="square" stroke-linejoin="round"/>
<path d="M117.562 100.181H125.309" stroke="#203248" stroke-width="0.866462" stroke-miterlimit="10" stroke-linecap="square" stroke-linejoin="round"/>
<circle cx="50.4107" cy="101.87" r="8.66462" fill="#F9C6B1"/>
<path d="M50.3423 101.783C49.3854 101.783 48.6094 101.007 48.6094 100.05V99.7036C48.6094 98.7467 49.3854 97.9707 50.3423 97.9707C51.2992 97.9707 52.0752 98.7467 52.0752 99.7036V100.05C52.0752 101.007 51.2992 101.783 50.3423 101.783Z" fill="white"/>
<path d="M53.877 104.87C53.877 104.247 53.4621 103.698 52.8601 103.534C52.2037 103.355 51.3074 103.169 50.4112 103.169C49.5149 103.169 48.6186 103.355 47.9622 103.534C47.3602 103.698 46.9453 104.247 46.9453 104.87V105.596H53.877V104.87Z" fill="white"/>
<path d="M50.3423 101.783C49.3854 101.783 48.6094 101.007 48.6094 100.05V99.7036C48.6094 98.7467 49.3854 97.9707 50.3423 97.9707C51.2992 97.9707 52.0752 98.7467 52.0752 99.7036V100.05C52.0752 101.007 51.2992 101.783 50.3423 101.783Z" stroke="#203248" stroke-width="0.866462" stroke-miterlimit="10" stroke-linecap="square"/>
<path d="M53.877 104.87C53.877 104.247 53.4621 103.698 52.8601 103.534C52.2037 103.355 51.3074 103.169 50.4112 103.169C49.5149 103.169 48.6186 103.355 47.9622 103.534C47.3602 103.698 46.9453 104.247 46.9453 104.87V105.596H53.877V104.87Z" stroke="#203248" stroke-width="0.866462" stroke-miterlimit="10" stroke-linecap="square"/>
<rect x="63.4062" y="95.6978" width="36.5303" height="3.97831" rx="1.98915" fill="#E1E5EB"/>
<rect x="63.4062" y="105.171" width="36.5303" height="3.97831" rx="1.98915" fill="#E1E5EB"/>
<rect x="63.4062" y="114.644" width="23.5691" height="3.97831" rx="1.98915" fill="#E1E5EB"/>
<path d="M30.9591 51.8305C31.7779 51.8305 32.4417 51.1637 32.4417 50.3411C32.4417 49.5185 31.7779 48.8517 30.9591 48.8517C30.1403 48.8517 29.4766 49.5185 29.4766 50.3411C29.4766 51.1637 30.1403 51.8305 30.9591 51.8305Z" fill="#EDEDED"/>
<path d="M36.1466 51.8305C36.9654 51.8305 37.6292 51.1637 37.6292 50.3411C37.6292 49.5185 36.9654 48.8517 36.1466 48.8517C35.3278 48.8517 34.6641 49.5185 34.6641 50.3411C34.6641 51.1637 35.3278 51.8305 36.1466 51.8305Z" fill="#EDEDED"/>
<path d="M41.3341 51.8305C42.1529 51.8305 42.8167 51.1637 42.8167 50.3411C42.8167 49.5185 42.1529 48.8517 41.3341 48.8517C40.5153 48.8517 39.8516 49.5185 39.8516 50.3411C39.8516 51.1637 40.5153 51.8305 41.3341 51.8305Z" fill="#EDEDED"/>
</g>
<defs>
<clipPath id="clip0">
<rect width="172" height="172" fill="white"/>
</clipPath>
</defs>
</svg>
