<svg width="172" height="172" viewBox="0 0 172 172" fill="none" xmlns="http://www.w3.org/2000/svg">
<circle cx="43" cy="20" r="8" fill="white"/>
<path d="M151.711 83.0794L150.457 65.8044L166.045 73.3559L151.711 83.0794Z" fill="white"/>
<path d="M31.2321 139.071L14.5018 143.554L18.9847 126.824L31.2321 139.071Z" fill="white"/>
<circle cx="84.1215" cy="86.1049" r="61.2855" fill="white"/>
<rect x="30.125" y="39.2786" width="72.8801" height="25.8393" rx="4.63782" fill="#B3E9DD"/>
<circle cx="44.2617" cy="52.2957" r="9" fill="white"/>
<path d="M44.1894 52.2957C43.1897 52.2957 42.3789 51.485 42.3789 50.4852V50.1231C42.3789 49.1233 43.1897 48.3126 44.1894 48.3126C45.1892 48.3126 46 49.1233 46 50.1231V50.4852C46 51.485 45.1892 52.2957 44.1894 52.2957Z" stroke="#2D3D54" stroke-width="0.892694" stroke-miterlimit="10" stroke-linecap="square"/>
<path d="M47.8827 55.5213C47.8827 54.8695 47.4493 54.2963 46.8203 54.125C46.1345 53.9378 45.1981 53.7441 44.2617 53.7441C43.3253 53.7441 42.3889 53.9378 41.703 54.125C41.0741 54.2963 40.6406 54.8695 40.6406 55.5213V56.2788H47.8827V55.5213Z" stroke="#2D3D54" stroke-width="0.892694" stroke-miterlimit="10" stroke-linecap="square"/>
<rect x="57.6211" y="46.6833" width="36.7713" height="3.97528" rx="1.98764" fill="white"/>
<rect x="57.6211" y="53.9712" width="21.864" height="3.97528" rx="1.98764" fill="white"/>
<rect x="65.2383" y="72.5226" width="72.8801" height="25.8393" rx="4.63782" fill="#FFDE9E"/>
<circle cx="80" cy="85.3254" r="9" fill="white"/>
<path d="M79.9219 84.4001C78.8175 84.4001 77.9219 83.5045 77.9219 82.4001V82.0001C77.9219 80.8957 78.8175 80.0001 79.9219 80.0001C81.0263 80.0001 81.9219 80.8957 81.9219 82.0001V82.4001C81.9219 83.5045 81.0263 84.4001 79.9219 84.4001Z" stroke="#2D3D54" stroke-width="0.892694" stroke-miterlimit="10" stroke-linecap="square"/>
<path d="M84 87.9632C84 87.2432 83.5212 86.61 82.8264 86.4208C82.0688 86.214 81.0344 86 80 86C78.9656 86 77.9312 86.214 77.1736 86.4208C76.4788 86.61 76 87.2432 76 87.9632V88.8H84V87.9632Z" stroke="#2D3D54" stroke-width="0.892694" stroke-miterlimit="10" stroke-linecap="square"/>
<rect x="92.7344" y="79.8106" width="36.7713" height="3.97528" rx="1.98764" fill="white"/>
<rect x="92.7344" y="87.0986" width="21.864" height="3.97528" rx="1.98764" fill="white"/>
<rect x="112.281" y="39.3953" width="25.8393" height="25.8393" rx="4.63782" fill="#203248"/>
<g clip-path="url(#clip0)">
<path d="M129.615 52.3149V57.284C129.615 57.5768 129.499 57.8577 129.292 58.0648C129.085 58.2719 128.804 58.3882 128.511 58.3882H121.885C121.593 58.3882 121.312 58.2719 121.105 58.0648C120.898 57.8577 120.781 57.5768 120.781 57.284V52.3149" stroke="white" stroke-width="0.892694" stroke-miterlimit="10" stroke-linecap="square"/>
<path d="M127.406 53.419V55.6275" stroke="white" stroke-width="0.892694" stroke-miterlimit="10" stroke-linecap="square"/>
<path d="M125.199 53.419V55.6275" stroke="white" stroke-width="0.892694" stroke-miterlimit="10" stroke-linecap="square"/>
<path d="M122.988 53.419V55.6275" stroke="white" stroke-width="0.892694" stroke-miterlimit="10" stroke-linecap="square"/>
<path d="M131.272 48.4499H119.125V50.6584H131.272V48.4499Z" stroke="white" stroke-width="0.892694" stroke-miterlimit="10" stroke-linecap="square"/>
<path d="M122.988 48.45V46.2415H127.405V48.45" stroke="white" stroke-width="0.892694" stroke-miterlimit="10" stroke-linecap="square"/>
</g>
<rect x="30.125" y="105.784" width="108.016" height="25.8881" rx="4.63782" fill="#E06358"/>
<path d="M51.3004 114.678C49.0605 116.918 49.0605 120.539 51.3004 122.779C53.5403 125.018 57.1613 125.018 59.4012 122.779C61.641 120.539 61.641 116.918 59.4012 114.678C57.1613 112.438 53.5403 112.438 51.3004 114.678ZM58.8301 118.157V119.299H55.9219L55.9219 122.207H54.7797L54.7797 119.299H51.8715V118.157H54.7797L54.7797 115.249H55.9219L55.9219 118.157H58.8301Z" fill="white"/>
<path d="M67.7883 121.372H66.784L68.6125 116.178H69.774L71.6051 121.372H70.6008L69.2135 117.243H69.173L67.7883 121.372ZM67.8212 119.336H70.5602V120.091H67.8212V119.336ZM73.5756 121.44C73.2696 121.44 72.9957 121.362 72.7539 121.205C72.5121 121.047 72.3211 120.819 72.1807 120.52C72.0404 120.221 71.9702 119.857 71.9702 119.429C71.9702 118.997 72.0413 118.631 72.1833 118.334C72.327 118.035 72.5206 117.809 72.764 117.657C73.0075 117.503 73.2789 117.426 73.5781 117.426C73.8064 117.426 73.994 117.465 74.1411 117.543C74.2882 117.619 74.4049 117.711 74.4911 117.819C74.5773 117.926 74.6441 118.026 74.6914 118.121H74.7295V116.178H75.6501V121.372H74.7472V120.758H74.6914C74.6441 120.853 74.5756 120.954 74.486 121.06C74.3964 121.165 74.2781 121.255 74.131 121.329C73.9839 121.403 73.7987 121.44 73.5756 121.44ZM73.8317 120.687C74.0261 120.687 74.1918 120.635 74.3288 120.53C74.4657 120.424 74.5697 120.276 74.6407 120.086C74.7117 119.897 74.7472 119.676 74.7472 119.424C74.7472 119.172 74.7117 118.953 74.6407 118.767C74.5714 118.581 74.4683 118.437 74.3313 118.334C74.1961 118.231 74.0295 118.179 73.8317 118.179C73.6271 118.179 73.4564 118.232 73.3194 118.339C73.1825 118.445 73.0793 118.592 73.01 118.78C72.9407 118.968 72.9061 119.183 72.9061 119.424C72.9061 119.668 72.9407 119.885 73.01 120.076C73.081 120.265 73.185 120.415 73.322 120.525C73.4606 120.633 73.6305 120.687 73.8317 120.687ZM78.0739 121.44C77.7679 121.44 77.494 121.362 77.2522 121.205C77.0105 121.047 76.8194 120.819 76.6791 120.52C76.5388 120.221 76.4686 119.857 76.4686 119.429C76.4686 118.997 76.5396 118.631 76.6816 118.334C76.8253 118.035 77.0189 117.809 77.2624 117.657C77.5058 117.503 77.7772 117.426 78.0765 117.426C78.3047 117.426 78.4924 117.465 78.6395 117.543C78.7865 117.619 78.9032 117.711 78.9894 117.819C79.0757 117.926 79.1424 118.026 79.1898 118.121H79.2278V116.178H80.1484V121.372H79.2456V120.758H79.1898C79.1424 120.853 79.074 120.954 78.9844 121.06C78.8948 121.165 78.7764 121.255 78.6293 121.329C78.4822 121.403 78.2971 121.44 78.0739 121.44ZM78.3301 120.687C78.5245 120.687 78.6902 120.635 78.8271 120.53C78.9641 120.424 79.0681 120.276 79.1391 120.086C79.2101 119.897 79.2456 119.676 79.2456 119.424C79.2456 119.172 79.2101 118.953 79.1391 118.767C79.0697 118.581 78.9666 118.437 78.8297 118.334C78.6944 118.231 78.5279 118.179 78.3301 118.179C78.1255 118.179 77.9547 118.232 77.8178 118.339C77.6808 118.445 77.5777 118.592 77.5084 118.78C77.4391 118.968 77.4044 119.183 77.4044 119.424C77.4044 119.668 77.4391 119.885 77.5084 120.076C77.5794 120.265 77.6834 120.415 77.8203 120.525C77.9589 120.633 78.1289 120.687 78.3301 120.687ZM84.6227 121.448C84.2321 121.448 83.8948 121.367 83.6108 121.205C83.3284 121.041 83.1112 120.809 82.959 120.51C82.8068 120.209 82.7308 119.855 82.7308 119.447C82.7308 119.046 82.8068 118.695 82.959 118.392C83.1129 118.088 83.3276 117.851 83.6032 117.682C83.8788 117.511 84.2025 117.426 84.5745 117.426C84.8146 117.426 85.0411 117.465 85.2541 117.543C85.4689 117.619 85.6582 117.737 85.8222 117.898C85.9879 118.058 86.1181 118.263 86.2128 118.511C86.3075 118.758 86.3548 119.052 86.3548 119.394V119.675H83.1619V119.057H85.4748C85.4731 118.881 85.435 118.724 85.3607 118.587C85.2863 118.449 85.1823 118.34 85.0487 118.26C84.9168 118.181 84.763 118.141 84.5872 118.141C84.3995 118.141 84.2346 118.187 84.0926 118.278C83.9506 118.368 83.8399 118.486 83.7604 118.633C83.6826 118.778 83.6429 118.938 83.6412 119.112V119.653C83.6412 119.879 83.6826 120.074 83.7655 120.236C83.8483 120.396 83.9641 120.52 84.1129 120.606C84.2617 120.691 84.4358 120.733 84.6353 120.733C84.7689 120.733 84.8898 120.714 84.998 120.677C85.1062 120.638 85.2 120.582 85.2795 120.507C85.359 120.433 85.419 120.341 85.4596 120.231L86.3168 120.327C86.2626 120.554 86.1595 120.752 86.0074 120.921C85.8569 121.088 85.6641 121.218 85.4291 121.311C85.1941 121.402 84.9253 121.448 84.6227 121.448ZM87.1315 121.372V117.477H88.0089V118.139H88.0546C88.1357 117.915 88.2702 117.741 88.4578 117.616C88.6455 117.489 88.8695 117.426 89.1299 117.426C89.3936 117.426 89.616 117.49 89.7969 117.619C89.9795 117.745 90.108 117.919 90.1823 118.139H90.2229C90.3091 117.922 90.4545 117.75 90.6591 117.621C90.8654 117.491 91.1097 117.426 91.392 117.426C91.7505 117.426 92.043 117.539 92.2695 117.766C92.4961 117.992 92.6094 118.323 92.6094 118.757V121.372H91.6888V118.899C91.6888 118.658 91.6245 118.481 91.496 118.369C91.3675 118.256 91.2103 118.199 91.0243 118.199C90.8028 118.199 90.6295 118.269 90.5044 118.407C90.381 118.544 90.3193 118.723 90.3193 118.942V121.372H89.419V118.861C89.419 118.66 89.3581 118.499 89.2364 118.379C89.1164 118.259 88.9591 118.199 88.7647 118.199C88.6328 118.199 88.5128 118.233 88.4046 118.301C88.2964 118.367 88.2101 118.461 88.1459 118.582C88.0816 118.702 88.0495 118.843 88.0495 119.003V121.372H87.1315ZM93.5407 122.833V117.477H94.4436V118.121H94.4968C94.5442 118.026 94.6109 117.926 94.6972 117.819C94.7834 117.711 94.9001 117.619 95.0471 117.543C95.1942 117.465 95.3819 117.426 95.6102 117.426C95.9111 117.426 96.1825 117.503 96.4242 117.657C96.6677 117.809 96.8604 118.035 97.0025 118.334C97.1462 118.631 97.218 118.997 97.218 119.429C97.218 119.857 97.1479 120.221 97.0075 120.52C96.8672 120.819 96.6761 121.047 96.4344 121.205C96.1926 121.362 95.9187 121.44 95.6127 121.44C95.3895 121.44 95.2044 121.403 95.0573 121.329C94.9102 121.255 94.7919 121.165 94.7022 121.06C94.6143 120.954 94.5459 120.853 94.4968 120.758H94.4588V122.833H93.5407ZM94.441 119.424C94.441 119.676 94.4765 119.897 94.5475 120.086C94.6202 120.276 94.7242 120.424 94.8595 120.53C94.9964 120.635 95.1621 120.687 95.3565 120.687C95.5594 120.687 95.7293 120.633 95.8663 120.525C96.0032 120.415 96.1064 120.265 96.1757 120.076C96.2467 119.885 96.2822 119.668 96.2822 119.424C96.2822 119.183 96.2476 118.968 96.1782 118.78C96.1089 118.592 96.0058 118.445 95.8688 118.339C95.7319 118.232 95.5611 118.179 95.3565 118.179C95.1604 118.179 94.9939 118.231 94.8569 118.334C94.72 118.437 94.616 118.581 94.545 118.767C94.4757 118.953 94.441 119.172 94.441 119.424ZM98.9223 116.178V121.372H98.0042V116.178H98.9223ZM101.565 121.448C101.185 121.448 100.855 121.364 100.576 121.197C100.297 121.03 100.081 120.795 99.9272 120.495C99.775 120.194 99.6989 119.842 99.6989 119.44C99.6989 119.037 99.775 118.685 99.9272 118.382C100.081 118.079 100.297 117.844 100.576 117.677C100.855 117.51 101.185 117.426 101.565 117.426C101.946 117.426 102.276 117.51 102.555 117.677C102.833 117.844 103.049 118.079 103.201 118.382C103.355 118.685 103.432 119.037 103.432 119.44C103.432 119.842 103.355 120.194 103.201 120.495C103.049 120.795 102.833 121.03 102.555 121.197C102.276 121.364 101.946 121.448 101.565 121.448ZM101.571 120.713C101.777 120.713 101.949 120.656 102.088 120.543C102.227 120.428 102.33 120.274 102.397 120.081C102.467 119.888 102.501 119.674 102.501 119.437C102.501 119.199 102.467 118.983 102.397 118.79C102.33 118.596 102.227 118.441 102.088 118.326C101.949 118.211 101.777 118.154 101.571 118.154C101.359 118.154 101.183 118.211 101.043 118.326C100.904 118.441 100.8 118.596 100.731 118.79C100.663 118.983 100.63 119.199 100.63 119.437C100.63 119.674 100.663 119.888 100.731 120.081C100.8 120.274 100.904 120.428 101.043 120.543C101.183 120.656 101.359 120.713 101.571 120.713ZM104.649 122.825C104.524 122.825 104.408 122.815 104.302 122.795C104.197 122.776 104.113 122.753 104.051 122.726L104.264 122.014C104.463 122.071 104.631 122.08 104.766 122.042C104.903 122.004 105.015 121.878 105.103 121.664L105.182 121.453L103.769 117.477H104.743L105.641 120.418H105.681L106.582 117.477L107.563 117.482L105.999 121.844C105.926 122.047 105.829 122.222 105.709 122.369C105.589 122.516 105.442 122.628 105.268 122.706C105.096 122.785 104.889 122.825 104.649 122.825ZM109.792 121.448C109.402 121.448 109.065 121.367 108.781 121.205C108.498 121.041 108.281 120.809 108.129 120.51C107.977 120.209 107.901 119.855 107.901 119.447C107.901 119.046 107.977 118.695 108.129 118.392C108.283 118.088 108.497 117.851 108.773 117.682C109.049 117.511 109.372 117.426 109.744 117.426C109.984 117.426 110.211 117.465 110.424 117.543C110.639 117.619 110.828 117.737 110.992 117.898C111.158 118.058 111.288 118.263 111.383 118.511C111.477 118.758 111.525 119.052 111.525 119.394V119.675H108.332V119.057H110.645C110.643 118.881 110.605 118.724 110.53 118.587C110.456 118.449 110.352 118.34 110.219 118.26C110.087 118.181 109.933 118.141 109.757 118.141C109.569 118.141 109.404 118.187 109.262 118.278C109.12 118.368 109.01 118.486 108.93 118.633C108.852 118.778 108.813 118.938 108.811 119.112V119.653C108.811 119.879 108.852 120.074 108.935 120.236C109.018 120.396 109.134 120.52 109.283 120.606C109.431 120.691 109.606 120.733 109.805 120.733C109.939 120.733 110.06 120.714 110.168 120.677C110.276 120.638 110.37 120.582 110.449 120.507C110.529 120.433 110.589 120.341 110.629 120.231L111.487 120.327C111.432 120.554 111.329 120.752 111.177 120.921C111.027 121.088 110.834 121.218 110.599 121.311C110.364 121.402 110.095 121.448 109.792 121.448ZM114.026 121.448C113.635 121.448 113.298 121.367 113.014 121.205C112.732 121.041 112.514 120.809 112.362 120.51C112.21 120.209 112.134 119.855 112.134 119.447C112.134 119.046 112.21 118.695 112.362 118.392C112.516 118.088 112.731 117.851 113.006 117.682C113.282 117.511 113.606 117.426 113.978 117.426C114.218 117.426 114.444 117.465 114.657 117.543C114.872 117.619 115.061 117.737 115.225 117.898C115.391 118.058 115.521 118.263 115.616 118.511C115.711 118.758 115.758 119.052 115.758 119.394V119.675H112.565V119.057H114.878C114.876 118.881 114.838 118.724 114.764 118.587C114.689 118.449 114.585 118.34 114.452 118.26C114.32 118.181 114.166 118.141 113.99 118.141C113.803 118.141 113.638 118.187 113.496 118.278C113.354 118.368 113.243 118.486 113.164 118.633C113.086 118.778 113.046 118.938 113.044 119.112V119.653C113.044 119.879 113.086 120.074 113.169 120.236C113.251 120.396 113.367 120.52 113.516 120.606C113.665 120.691 113.839 120.733 114.038 120.733C114.172 120.733 114.293 120.714 114.401 120.677C114.509 120.638 114.603 120.582 114.683 120.507C114.762 120.433 114.822 120.341 114.863 120.231L115.72 120.327C115.666 120.554 115.563 120.752 115.41 120.921C115.26 121.088 115.067 121.218 114.832 121.311C114.597 121.402 114.328 121.448 114.026 121.448Z" fill="white"/>
<rect x="30.125" y="72.5226" width="25.8393" height="25.8393" rx="4.63782" fill="#203248"/>
<g clip-path="url(#clip1)">
<path d="M41.8011 80.97H37.2461V90.9082H47.1843V86.3532" stroke="white" stroke-width="0.892694" stroke-miterlimit="10" stroke-linecap="square"/>
<path d="M43.0431 86.7672L40.5586 87.5954L41.3868 85.1109L47.1841 79.3136L48.8404 80.97L43.0431 86.7672Z" stroke="white" stroke-width="0.892694" stroke-miterlimit="10" stroke-linecap="square"/>
<path d="M45.5273 80.97L47.1837 82.6263" stroke="white" stroke-width="0.892694" stroke-miterlimit="10"/>
</g>
<defs>
<clipPath id="clip0">
<rect width="13.2509" height="13.2509" fill="white" transform="translate(118.574 45.6895)"/>
</clipPath>
<clipPath id="clip1">
<rect width="13.2509" height="13.2509" fill="white" transform="translate(36.418 78.4855)"/>
</clipPath>
</defs>
</svg>
