<svg width="118" height="100" viewBox="0 0 118 100" fill="none" xmlns="http://www.w3.org/2000/svg">
<path d="M116.989 6.00764V75.4339C116.989 78.1693 114.781 80.3782 112.025 80.3782H76.5888L59 97.9773V1.04272L112.025 1.04272C114.781 1.04272 116.989 3.25165 116.989 6.00764Z" fill="#B3E9DD"/>
<path d="M59.0101 1.04272V97.9773L58.7933 98.1941L40.9774 80.3782H5.96492C3.22957 80.3782 1 78.1693 1 75.4339L1 6.00764C1 3.25165 3.21925 1.04272 5.96492 1.04272L59.0101 1.04272Z" fill="white"/>
<mask id="mask0" mask-type="alpha" maskUnits="userSpaceOnUse" x="1" y="1" width="59" height="98">
<path d="M59.0101 1.04285V97.9775L58.7933 98.1942L40.9774 80.3783H5.96492C3.22957 80.3783 1 78.1694 1 75.4341L1 6.00776C1 3.25177 3.21925 1.04285 5.96492 1.04285L59.0101 1.04285Z" fill="#A4EBDD"/>
</mask>
<g mask="url(#mask0)">
<path fill-rule="evenodd" clip-rule="evenodd" d="M29.3166 -37.8143L30.0237 -38.5215L28.6095 -39.9357L27.9024 -39.2286L-46.9843 35.6581L-47.6914 36.3652L-46.2772 37.7794L-45.5701 37.0723L29.3166 -37.8143ZM42.1262 -25.005L42.8333 -25.7121L41.4191 -27.1263L40.712 -26.4192L-34.1747 48.4675L-34.8818 49.1746L-33.4676 50.5888L-32.7605 49.8817L42.1262 -25.005ZM55.6439 -12.9025L54.9368 -12.1954L-19.9499 62.6913L-20.657 63.3984L-22.0712 61.9842L-21.3641 61.2771L53.5226 -13.6096L54.2297 -14.3167L55.6439 -12.9025ZM67.7464 0.614697L68.4535 -0.092411L67.0393 -1.50663L66.3322 -0.799519L-8.55453 74.0872L-9.26163 74.7943L-7.84742 76.2085L-7.14031 75.5014L67.7464 0.614697ZM81.2631 12.7169L80.556 13.4241L5.66929 88.3107L4.96218 89.0178L3.54797 87.6036L4.25507 86.8965L79.1418 12.0098L79.8489 11.3027L81.2631 12.7169ZM93.3553 26.2237L94.0625 25.5166L92.6482 24.1024L91.9411 24.8095L17.0545 99.6961L16.3473 100.403L17.7616 101.817L18.4687 101.11L93.3553 26.2237ZM106.872 38.3259L106.165 39.033L31.2783 113.92L30.5712 114.627L29.1569 113.213L29.8641 112.505L104.751 37.6188L105.458 36.9117L106.872 38.3259ZM35.6348 -31.4974L36.3419 -32.2045L34.9277 -33.6187L34.2206 -32.9116L-40.6661 41.9751L-41.3732 42.6822L-39.959 44.0964L-39.2519 43.3893L35.6348 -31.4974ZM49.1411 -19.3951L48.434 -18.688L-26.4526 56.1987L-27.1597 56.9058L-28.574 55.4916L-27.8669 54.7844L47.0198 -20.1022L47.7269 -20.8093L49.1411 -19.3951ZM61.2436 -5.88863L61.9507 -6.59574L60.5365 -8.00995L59.8294 -7.30285L-15.0573 67.5838L-15.7644 68.2909L-14.3502 69.7052L-13.643 68.998L61.2436 -5.88863ZM74.7603 6.21459L74.0532 6.9217L-0.833443 81.8084L-1.54055 82.5155L-2.95477 81.1013L-2.24766 80.3942L72.639 5.50748L73.3461 4.80038L74.7603 6.21459ZM86.8624 19.7311L87.5695 19.0239L86.1552 17.6097L85.4481 18.3168L10.5615 93.2035L9.85435 93.9106L11.2686 95.3248L11.9757 94.6177L86.8624 19.7311ZM100.379 31.8335L99.6719 32.5406L24.7853 107.427L24.0782 108.134L22.6639 106.72L23.3711 106.013L98.2577 31.1264L98.9648 30.4193L100.379 31.8335ZM112.473 45.3507L113.18 44.6435L111.765 43.2294L111.058 43.9366L36.1821 118.823L35.475 119.53L36.8893 120.945L37.5964 120.237L112.473 45.3507Z" fill="#2D3D54"/>
</g>
<path d="M59.0101 97.9774L76.5989 80.3782H112.035C114.791 80.3782 117 78.1693 117 75.4339V6.00764C117 3.25165 114.791 1.04272 112.035 1.04272L59.0101 1.04272L5.96492 1.04272C3.22957 1.04272 1 3.25165 1 6.00764L1 75.4339C1 78.1693 3.21925 80.3782 5.96492 80.3782H40.9877L58.7933 98.1941L59.0101 97.9774Z" stroke="#2D3D54" stroke-width="2" stroke-miterlimit="10" stroke-linecap="square"/>
<path d="M59.0117 1.04272V97.9774V98.1941" stroke="#2D3D54" stroke-width="2" stroke-miterlimit="10"/>
<path d="M87.9962 61.4061C97.6418 61.4061 105.461 53.5868 105.461 43.9412C105.461 34.2955 97.6418 26.4762 87.9962 26.4762C78.3506 26.4762 70.5312 34.2955 70.5312 43.9412C70.5312 53.5868 78.3506 61.4061 87.9962 61.4061Z" fill="#2D3D54"/>
<path d="M84.0508 36.1791C87.0442 36.1791 89.4699 38.6048 89.4699 41.5982C89.4699 44.5916 87.0442 47.0173 84.0508 47.0173L90.4195 53.386" stroke="white" stroke-width="2" stroke-miterlimit="10" stroke-linecap="square" stroke-linejoin="round"/>
<path d="M81.668 36.1792H94.3228" stroke="white" stroke-width="2" stroke-miterlimit="10" stroke-linecap="square" stroke-linejoin="round"/>
<path d="M81.668 41.8767H94.3228" stroke="white" stroke-width="2" stroke-miterlimit="10" stroke-linecap="square" stroke-linejoin="round"/>
</svg>
