<svg width="119" height="113" viewBox="0 0 119 113" fill="none" xmlns="http://www.w3.org/2000/svg">
<path d="M9.73438 1.31567L16.7267 1.31567L84.8101 1.31567C91.7359 1.31567 97.343 6.92281 97.343 13.8486V102.1H16.7267L16.7267 18.7909V8.80663C16.7267 6.73443 15.8956 4.87277 14.5326 3.50977C13.2804 2.25758 11.6071 1.45973 9.73438 1.32676V1.31567Z" fill="#F9C6B1"/>
<path d="M16.7266 18.7907L16.7266 102.111H97.354V13.8485C97.354 6.92268 91.7469 1.31555 84.8211 1.31555L16.7266 1.31555" stroke="#182639" stroke-width="2" stroke-miterlimit="10"/>
<path d="M16.7267 26.7145H1.72266L1.72266 8.80712C1.72266 4.67379 5.08029 1.31616 9.22469 1.31616C9.40199 1.31616 9.55713 1.31616 9.72334 1.32725C11.585 1.44914 13.2694 2.24699 14.5215 3.51026C15.8845 4.87326 16.7156 6.73491 16.7156 8.80712V26.7145H16.7267Z" stroke="#182639" stroke-width="2" stroke-miterlimit="10"/>
<path d="M9.73438 1.31567L16.7267 1.31567" stroke="#182639" stroke-width="2" stroke-miterlimit="10"/>
<path d="M33.8594 73.7566H81.7939" stroke="#182639" stroke-width="2" stroke-miterlimit="10"/>
<path d="M33.8594 87.5685H81.7939" stroke="#182639" stroke-width="2" stroke-miterlimit="10"/>
<path d="M16.7267 8.80712V26.7145H1.72266L1.72266 8.80712C1.72266 4.67379 5.08029 1.31616 9.22469 1.31616C9.40199 1.31616 9.55713 1.31616 9.72334 1.32725C11.585 1.44914 13.2694 2.24699 14.5215 3.51026C15.8956 4.87326 16.7267 6.73491 16.7267 8.80712Z" fill="#182639"/>
<path d="M53.1786 55.5235C64.7458 55.5235 74.1228 46.1464 74.1228 34.5792C74.1228 23.0121 64.7458 13.635 53.1786 13.635C41.6114 13.635 32.2344 23.0121 32.2344 34.5792C32.2344 46.1464 41.6114 55.5235 53.1786 55.5235Z" fill="white" stroke="#182639" stroke-width="2" stroke-miterlimit="10" stroke-linecap="square" stroke-linejoin="round"/>
<path d="M48.4492 25.2639C52.0436 25.2639 54.9539 28.1742 54.9539 31.7686C54.9539 35.3629 52.0436 38.2732 48.4492 38.2732L56.0857 45.9097" stroke="#182639" stroke-width="2" stroke-miterlimit="10" stroke-linecap="square" stroke-linejoin="round"/>
<path d="M45.5898 25.2638H60.7756" stroke="#182639" stroke-width="2" stroke-miterlimit="10" stroke-linecap="square" stroke-linejoin="round"/>
<path d="M45.5898 32.0919H60.7756" stroke="#182639" stroke-width="2" stroke-miterlimit="10" stroke-linecap="square" stroke-linejoin="round"/>
<path d="M73.9593 60.4733C80.629 60.4733 86.0358 55.0665 86.0358 48.3968C86.0358 41.7272 80.629 36.3203 73.9593 36.3203C67.2897 36.3203 61.8828 41.7272 61.8828 48.3968C61.8828 55.0665 67.2897 60.4733 73.9593 60.4733Z" fill="#182639"/>
<path d="M74 52.6377V43.0735" stroke="white" stroke-width="2" stroke-miterlimit="10"/>
<path d="M69.918 49.143L73.9476 53.1727L78.0021 49.1182" stroke="white" stroke-width="2" stroke-miterlimit="10"/>
</svg>
