<svg width="64" height="64" viewBox="0 0 64 64" fill="none" xmlns="http://www.w3.org/2000/svg">
<path d="M31.9991 63.0303C49.1366 63.0303 63.0294 49.1376 63.0294 32C63.0294 14.8624 49.1366 0.969697 31.9991 0.969697C14.8615 0.969697 0.96875 14.8624 0.96875 32C0.96875 49.1376 14.8615 63.0303 31.9991 63.0303Z" fill="white"/>
<g clip-path="url(#clip0)">
<path d="M15.375 17.75L20.9167 23.2916" stroke="#182639" stroke-width="2" stroke-miterlimit="10" stroke-linecap="square"/>
<path d="M43.0057 29.5711L34.371 28.0472L34.371 17.3597C34.371 16.6248 34.0791 15.92 33.5595 15.4004C33.0398 14.8808 32.335 14.5889 31.6002 14.5889C30.8653 14.5889 30.1605 14.8808 29.6409 15.4004C29.1213 15.92 28.8293 16.6248 28.8293 17.3597L28.8349 35.8514C28.8362 36.1717 28.7403 36.4847 28.56 36.7493C28.3796 37.014 28.1233 37.2177 27.8248 37.3336C27.5263 37.4496 27.1997 37.4723 26.888 37.3987C26.5763 37.3252 26.2943 37.1589 26.0791 36.9218L21.8674 32.3301C21.3743 31.7922 20.7105 31.4412 19.9884 31.3363C19.2663 31.2315 18.5301 31.3792 17.9043 31.7546C17.4334 32.0373 17.0884 32.4893 16.9397 33.018C16.7911 33.5468 16.8501 34.1124 17.1048 34.599L24.871 49.4222L43.871 49.4222L46.8303 35.2173C46.9599 34.5947 46.9632 33.9523 46.84 33.3283C46.7167 32.7044 46.4694 32.1115 46.1127 31.5849C45.7561 31.0584 45.2972 30.6088 44.7635 30.2628C44.2298 29.9169 43.6321 29.6817 43.0057 29.5711Z" fill="white"/>
<path d="M43.0057 29.5711L34.371 28.0472L34.371 17.3597C34.371 16.6248 34.0791 15.92 33.5595 15.4004C33.0398 14.8808 32.335 14.5889 31.6002 14.5889C30.8653 14.5889 30.1605 14.8808 29.6409 15.4004C29.1213 15.92 28.8293 16.6248 28.8293 17.3597L28.8349 35.8514C28.8362 36.1717 28.7403 36.4847 28.56 36.7493C28.3796 37.014 28.1233 37.2177 27.8248 37.3336C27.5263 37.4496 27.1997 37.4723 26.888 37.3987C26.5763 37.3252 26.2943 37.1589 26.0791 36.9218L21.8674 32.3301C21.3743 31.7922 20.7105 31.4412 19.9884 31.3363C19.2663 31.2315 18.5301 31.3792 17.9043 31.7546C17.4334 32.0373 17.0884 32.4893 16.9397 33.018C16.7911 33.5468 16.8501 34.1124 17.1048 34.599L24.871 49.4222L43.871 49.4222L46.8303 35.2173C46.9599 34.5947 46.9632 33.9523 46.84 33.3283C46.7167 32.7044 46.4694 32.1115 46.1127 31.5849C45.7561 31.0584 45.2972 30.6088 44.7635 30.2628C44.2298 29.9169 43.6321 29.6817 43.0057 29.5711Z" fill="#B3E9DD" stroke="#182639" stroke-width="2" stroke-miterlimit="10" stroke-linecap="square"/>
<path d="M20.1263 27.25L16.168 26.4583" stroke="#182639" stroke-width="2" stroke-miterlimit="10" stroke-linecap="square"/>
<path d="M24.8737 22.5L24.082 18.5416" stroke="#182639" stroke-width="2" stroke-miterlimit="10" stroke-linecap="square"/>
</g>
<defs>
<clipPath id="clip0">
<rect width="38" height="38" fill="white" transform="translate(13 51) rotate(-90)"/>
</clipPath>
</defs>
</svg>
