<svg width="64" height="64" viewBox="0 0 64 64" fill="none" xmlns="http://www.w3.org/2000/svg">
<path d="M32.0303 63.0606C49.1679 63.0606 63.0606 49.1678 63.0606 32.0303C63.0606 14.8927 49.1679 0.999969 32.0303 0.999969C14.8927 0.999969 1 14.8927 1 32.0303C1 49.1678 14.8927 63.0606 32.0303 63.0606Z" fill="white"/>
<g clip-path="url(#clip0)">
<path d="M29.5664 42C31.6294 43.3355 34.0411 44.0313 36.4984 44C37.6547 43.9998 38.8062 43.8506 39.9244 43.556L43.9984 46V41.594C44.8957 40.9558 45.6333 40.1188 46.1537 39.1484C46.6741 38.178 46.9632 37.1005 46.9984 36C46.9952 34.952 46.732 33.9212 46.2324 33" stroke="#182639" stroke-width="2" stroke-miterlimit="10" stroke-linecap="square"/>
<path d="M30.5 18C23.044 18 17 22.7 17 28.5C17.0249 29.7452 17.3039 30.9723 17.8197 32.106C18.3356 33.2397 19.0775 34.2561 20 35.093V42L26.813 38.593C28.0236 38.862 29.2599 38.9985 30.5 39C37.956 39 44 34.3 44 28.5C44 22.7 37.956 18 30.5 18Z" fill="#F9C6B1"/>
<path d="M30.5 18C23.044 18 17 22.7 17 28.5C17.0249 29.7452 17.3039 30.9723 17.8197 32.106C18.3356 33.2397 19.0775 34.2561 20 35.093V42L26.813 38.593C28.0236 38.862 29.2599 38.9985 30.5 39C37.956 39 44 34.3 44 28.5C44 22.7 37.956 18 30.5 18Z" fill="#F9C6B1" stroke="#182639" stroke-width="2" stroke-miterlimit="10" stroke-linecap="square"/>
</g>
<defs>
<clipPath id="clip0">
<rect width="32" height="32" fill="white" transform="translate(16 16)"/>
</clipPath>
</defs>
</svg>
