<svg width="172" height="127" viewBox="0 0 172 127" fill="none" xmlns="http://www.w3.org/2000/svg">
<g clip-path="url(#clip0)">
<rect opacity="0.4" x="27.2344" y="23.5856" width="9.99014" height="9.99014" transform="rotate(105 27.2344 23.5856)" fill="#F9C6B1"/>
<path opacity="0.4" d="M164.546 61.0187L153.826 56.0662L163.475 49.2581L164.546 61.0187Z" fill="#F9C6B1"/>
<path opacity="0.4" d="M12.8625 103.811L25.5586 102.206L20.6006 114.004L12.8625 103.811Z" fill="#F9C6B1"/>
<circle cx="87.5" cy="73.5" r="61.5" fill="#F9C6B1"/>
<path d="M51.777 251.573C47.9057 251.573 44.1929 249.768 41.4555 246.555C38.718 243.342 37.1802 238.984 37.1802 234.441V96.2422C36.9221 96.2422 36.6745 96.1219 36.4921 95.9077C36.3096 95.6935 36.207 95.403 36.207 95.1001V79.6813C36.207 79.3783 36.3096 79.0878 36.4921 78.8736C36.6745 78.6594 36.9221 78.5391 37.1802 78.5391V73.9706C36.9221 73.9706 36.6745 73.8502 36.4921 73.636C36.3096 73.4219 36.207 73.1313 36.207 72.8284V57.4096C36.207 57.1067 36.3096 56.8162 36.4921 56.602C36.6745 56.3878 36.9221 56.2675 37.1802 56.2675V47.7014C36.9221 47.7014 36.6745 47.5811 36.4921 47.3669C36.3096 47.1527 36.207 46.8622 36.207 46.5593V39.7065C36.207 39.4036 36.3096 39.1131 36.4921 38.8989C36.6745 38.6847 36.9221 38.5643 37.1802 38.5643V22.5744C37.1802 20.3246 37.5577 18.0968 38.2913 16.0183C39.0248 13.9397 40.1 12.0511 41.4555 10.4602C42.8109 8.86939 44.42 7.60744 46.191 6.74647C47.962 5.88551 49.8601 5.44238 51.777 5.44238H125.004C126.921 5.44238 128.819 5.88551 130.59 6.74647C132.361 7.60744 133.97 8.86939 135.326 10.4602C136.681 12.0511 137.756 13.9397 138.49 16.0183C139.224 18.0968 139.601 20.3246 139.601 22.5744V62.2637C139.859 62.2637 140.107 62.384 140.289 62.5982C140.472 62.8124 140.574 63.1029 140.574 63.4058V89.1039C140.574 89.4068 140.472 89.6973 140.289 89.9115C140.107 90.1257 139.859 90.246 139.601 90.246V234.441C139.601 238.984 138.063 243.342 135.326 246.555C132.588 249.768 128.876 251.573 125.004 251.573H51.777Z" fill="#2D3D54"/>
<path d="M98.2412 15.1505C98.2412 14.6961 98.395 14.2603 98.6687 13.939C98.9425 13.6178 99.3137 13.4373 99.7009 13.4373C100.088 13.4373 100.459 13.6178 100.733 13.939C101.007 14.2603 101.161 14.6961 101.161 15.1505C101.161 15.6048 101.007 16.0406 100.733 16.3619C100.459 16.6832 100.088 16.8637 99.7009 16.8637C99.3137 16.8637 98.9425 16.6832 98.6687 16.3619C98.395 16.0406 98.2412 15.6048 98.2412 15.1505ZM82.6712 16.0071C82.4777 16.0071 82.292 15.9168 82.1552 15.7562C82.0183 15.5955 81.9414 15.3776 81.9414 15.1505C81.9414 14.9233 82.0183 14.7054 82.1552 14.5447C82.292 14.3841 82.4777 14.2939 82.6712 14.2939H94.1054C94.299 14.2939 94.4846 14.3841 94.6215 14.5447C94.7584 14.7054 94.8353 14.9233 94.8353 15.1505C94.8353 15.3776 94.7584 15.5955 94.6215 15.7562C94.4846 15.9168 94.299 16.0071 94.1054 16.0071H82.6712Z" fill="#55657D"/>
<path d="M124.194 244.434H52.4265C51.1483 244.436 49.8824 244.141 48.7013 243.568C47.5201 242.994 46.4469 242.153 45.5431 241.092C44.6393 240.031 43.9225 238.772 43.4338 237.385C42.9452 235.999 42.6942 234.513 42.6953 233.013V24.002C42.6943 22.5018 42.9452 21.016 43.4339 19.6298C43.9226 18.2435 44.6393 16.9839 45.5432 15.9231C46.447 14.8623 47.5202 14.021 48.7013 13.4475C49.8824 12.874 51.1483 12.5794 52.4265 12.5806H61.6712C61.9899 12.5811 62.2958 12.7281 62.5232 12.9902C62.7506 13.2523 62.8814 13.6086 62.8876 13.9826V14.8649C62.887 15.69 63.0251 16.5072 63.2938 17.2696C63.5626 18.0321 63.9568 18.7248 64.4539 19.3083C64.951 19.8917 65.5413 20.3544 66.1909 20.6699C66.8405 20.9853 67.5367 21.1473 68.2397 21.1467H108.868C109.507 21.1473 110.14 21 110.73 20.7132C111.321 20.4264 111.857 20.0058 112.309 19.4754C112.761 18.945 113.119 18.3152 113.364 17.6221C113.608 16.9289 113.734 16.1861 113.733 15.436V14.0083C113.734 13.63 113.862 13.2674 114.089 12.9998C114.317 12.7322 114.626 12.5815 114.948 12.5806H124.194C125.472 12.5794 126.738 12.874 127.919 13.4475C129.101 14.021 130.174 14.8623 131.078 15.9231C131.981 16.9839 132.698 18.2435 133.187 19.6298C133.676 21.016 133.926 22.5018 133.925 24.002V233.013C133.927 234.513 133.676 235.999 133.187 237.385C132.698 238.772 131.981 240.031 131.078 241.092C130.174 242.153 129.101 242.994 127.919 243.568C126.738 244.141 125.472 244.436 124.194 244.434Z" fill="white"/>
<rect x="49" y="102" width="80" height="19.0164" rx="3.34067" fill="#E06358"/>
<path d="M67.5668 108.339C65.9702 109.936 65.9702 112.517 67.5668 114.114C69.1634 115.71 71.7445 115.71 73.3411 114.114C74.9377 112.517 74.9377 109.936 73.3411 108.339C71.7445 106.743 69.1634 106.743 67.5668 108.339ZM72.934 110.819V111.634H70.8611V113.707H70.0469L70.0469 111.634L67.9739 111.634V110.819L70.0469 110.819L70.0469 108.747H70.8611V110.819H72.934Z" fill="white"/>
<path d="M78.1963 113.409H77.4804L78.7838 109.706H79.6117L80.9169 113.409H80.201L79.2122 110.466H79.1833L78.1963 113.409ZM78.2198 111.957H80.1721V112.496H78.2198V111.957ZM82.3215 113.457C82.1033 113.457 81.9081 113.401 81.7358 113.289C81.5634 113.177 81.4273 113.015 81.3272 112.801C81.2272 112.588 81.1772 112.329 81.1772 112.024C81.1772 111.715 81.2278 111.455 81.329 111.243C81.4315 111.03 81.5695 110.869 81.743 110.76C81.9165 110.651 82.11 110.596 82.3233 110.596C82.486 110.596 82.6197 110.624 82.7246 110.679C82.8294 110.733 82.9126 110.799 82.9741 110.876C83.0355 110.952 83.0831 111.024 83.1169 111.091H83.144V109.706H83.8002V113.409H83.1566V112.971H83.1169C83.0831 113.039 83.0343 113.11 82.9704 113.186C82.9066 113.261 82.8222 113.325 82.7174 113.378C82.6125 113.431 82.4806 113.457 82.3215 113.457ZM82.5041 112.921C82.6426 112.921 82.7608 112.883 82.8584 112.809C82.956 112.733 83.0301 112.627 83.0807 112.492C83.1313 112.357 83.1566 112.2 83.1566 112.02C83.1566 111.841 83.1313 111.685 83.0807 111.552C83.0313 111.42 82.9578 111.317 82.8602 111.243C82.7638 111.17 82.6451 111.133 82.5041 111.133C82.3582 111.133 82.2365 111.171 82.1389 111.247C82.0413 111.323 81.9678 111.427 81.9184 111.561C81.8689 111.695 81.8442 111.848 81.8442 112.02C81.8442 112.194 81.8689 112.349 81.9184 112.485C81.969 112.62 82.0431 112.727 82.1407 112.805C82.2395 112.882 82.3606 112.921 82.5041 112.921ZM85.5279 113.457C85.3098 113.457 85.1146 113.401 84.9422 113.289C84.7699 113.177 84.6337 113.015 84.5337 112.801C84.4336 112.588 84.3836 112.329 84.3836 112.024C84.3836 111.715 84.4343 111.455 84.5355 111.243C84.6379 111.03 84.7759 110.869 84.9495 110.76C85.123 110.651 85.3164 110.596 85.5297 110.596C85.6924 110.596 85.8262 110.624 85.931 110.679C86.0359 110.733 86.119 110.799 86.1805 110.876C86.242 110.952 86.2896 111.024 86.3233 111.091H86.3504V109.706H87.0066V113.409H86.3631V112.971H86.3233C86.2896 113.039 86.2408 113.11 86.1769 113.186C86.113 113.261 86.0287 113.325 85.9238 113.378C85.819 113.431 85.687 113.457 85.5279 113.457ZM85.7105 112.921C85.8491 112.921 85.9672 112.883 86.0648 112.809C86.1624 112.733 86.2366 112.627 86.2872 112.492C86.3378 112.357 86.3631 112.2 86.3631 112.02C86.3631 111.841 86.3378 111.685 86.2872 111.552C86.2378 111.42 86.1642 111.317 86.0666 111.243C85.9702 111.17 85.8515 111.133 85.7105 111.133C85.5647 111.133 85.443 111.171 85.3453 111.247C85.2477 111.323 85.1742 111.427 85.1248 111.561C85.0754 111.695 85.0507 111.848 85.0507 112.02C85.0507 112.194 85.0754 112.349 85.1248 112.485C85.1754 112.62 85.2495 112.727 85.3472 112.805C85.446 112.882 85.5671 112.921 85.7105 112.921ZM88.9956 113.409V109.706H90.4128C90.6804 109.706 90.9027 109.749 91.0799 109.833C91.2583 109.916 91.3914 110.03 91.4794 110.175C91.5686 110.319 91.6132 110.483 91.6132 110.666C91.6132 110.817 91.5842 110.946 91.5264 111.053C91.4686 111.159 91.3908 111.245 91.2932 111.312C91.1956 111.378 91.0865 111.426 90.966 111.455V111.491C91.0974 111.498 91.2233 111.538 91.3438 111.612C91.4655 111.684 91.565 111.787 91.6421 111.919C91.7192 112.052 91.7578 112.212 91.7578 112.4C91.7578 112.592 91.7114 112.764 91.6186 112.917C91.5258 113.069 91.386 113.189 91.1992 113.277C91.0124 113.365 90.7774 113.409 90.4942 113.409H88.9956ZM89.6663 112.848H90.3875C90.631 112.848 90.8063 112.802 90.9136 112.709C91.022 112.615 91.0763 112.495 91.0763 112.348C91.0763 112.238 91.0492 112.139 90.9949 112.051C90.9407 111.962 90.8636 111.892 90.7635 111.841C90.6635 111.79 90.5442 111.764 90.4056 111.764H89.6663V112.848ZM89.6663 111.281H90.3297C90.4454 111.281 90.5496 111.26 90.6424 111.218C90.7352 111.174 90.8081 111.113 90.8612 111.035C90.9154 110.956 90.9425 110.862 90.9425 110.753C90.9425 110.61 90.8919 110.492 90.7907 110.399C90.6906 110.306 90.5418 110.26 90.3442 110.26H89.6663V111.281ZM93.5416 113.463C93.2632 113.463 93.0227 113.405 92.8203 113.289C92.619 113.172 92.4642 113.007 92.3557 112.794C92.2472 112.58 92.193 112.327 92.193 112.037C92.193 111.751 92.2472 111.5 92.3557 111.285C92.4654 111.068 92.6184 110.899 92.8149 110.778C93.0113 110.657 93.2421 110.596 93.5072 110.596C93.6783 110.596 93.8398 110.624 93.9917 110.679C94.1447 110.733 94.2797 110.818 94.3966 110.932C94.5147 111.047 94.6075 111.192 94.675 111.37C94.7425 111.546 94.7762 111.755 94.7762 111.999V112.199H92.5003V111.758H94.149C94.1478 111.633 94.1206 111.521 94.0676 111.424C94.0146 111.325 93.9405 111.247 93.8453 111.191C93.7513 111.134 93.6416 111.106 93.5163 111.106C93.3825 111.106 93.265 111.138 93.1637 111.203C93.0625 111.267 92.9836 111.352 92.9269 111.456C92.8715 111.56 92.8432 111.674 92.842 111.798V112.183C92.842 112.345 92.8715 112.483 92.9306 112.599C92.9896 112.713 93.0722 112.801 93.1782 112.863C93.2843 112.923 93.4084 112.953 93.5506 112.953C93.6458 112.953 93.732 112.94 93.8091 112.913C93.8862 112.886 93.9531 112.845 94.0098 112.792C94.0664 112.739 94.1092 112.674 94.1381 112.595L94.7491 112.664C94.7106 112.825 94.637 112.966 94.5286 113.087C94.4213 113.206 94.2839 113.299 94.1164 113.365C93.9489 113.43 93.7573 113.463 93.5416 113.463ZM95.9842 111.782V113.409H95.3299V110.632H95.9553V111.104H95.9879C96.0517 110.948 96.1536 110.825 96.2934 110.733C96.4344 110.642 96.6085 110.596 96.8158 110.596C97.0074 110.596 97.1743 110.637 97.3165 110.719C97.46 110.801 97.5708 110.919 97.6492 111.075C97.7287 111.23 97.7679 111.419 97.7667 111.641V113.409H97.1123V111.742C97.1123 111.556 97.0641 111.411 96.9676 111.306C96.8724 111.201 96.7405 111.149 96.5718 111.149C96.4573 111.149 96.3554 111.174 96.2663 111.225C96.1783 111.274 96.109 111.346 96.0584 111.44C96.009 111.534 95.9842 111.648 95.9842 111.782ZM99.6612 113.463C99.3828 113.463 99.1423 113.405 98.9399 113.289C98.7386 113.172 98.5838 113.007 98.4753 112.794C98.3668 112.58 98.3126 112.327 98.3126 112.037C98.3126 111.751 98.3668 111.5 98.4753 111.285C98.585 111.068 98.738 110.899 98.9344 110.778C99.1309 110.657 99.3617 110.596 99.6268 110.596C99.7979 110.596 99.9594 110.624 100.111 110.679C100.264 110.733 100.399 110.818 100.516 110.932C100.634 111.047 100.727 111.192 100.795 111.37C100.862 111.546 100.896 111.755 100.896 111.999V112.199H98.6199V111.758H100.269C100.267 111.633 100.24 111.521 100.187 111.424C100.134 111.325 100.06 111.247 99.9649 111.191C99.8708 111.134 99.7612 111.106 99.6358 111.106C99.5021 111.106 99.3846 111.138 99.2833 111.203C99.1821 111.267 99.1032 111.352 99.0465 111.456C98.9911 111.56 98.9628 111.674 98.9616 111.798V112.183C98.9616 112.345 98.9911 112.483 99.0501 112.599C99.1092 112.713 99.1917 112.801 99.2978 112.863C99.4039 112.923 99.528 112.953 99.6702 112.953C99.7654 112.953 99.8516 112.94 99.9287 112.913C100.006 112.886 100.073 112.845 100.129 112.792C100.186 112.739 100.229 112.674 100.258 112.595L100.869 112.664C100.83 112.825 100.757 112.966 100.648 113.087C100.541 113.206 100.404 113.299 100.236 113.365C100.068 113.43 99.8769 113.463 99.6612 113.463ZM102.856 110.632V111.138H101.214V110.632H102.856ZM101.625 113.409V110.37C101.625 110.183 101.663 110.028 101.74 109.904C101.819 109.779 101.924 109.687 102.055 109.625C102.186 109.564 102.332 109.533 102.493 109.533C102.606 109.533 102.706 109.542 102.794 109.56C102.882 109.578 102.947 109.594 102.99 109.609L102.859 110.115C102.832 110.107 102.797 110.098 102.755 110.09C102.712 110.08 102.665 110.075 102.614 110.075C102.492 110.075 102.406 110.105 102.355 110.164C102.306 110.222 102.281 110.305 102.281 110.413V113.409H101.625ZM103.368 113.409V110.632H104.023V113.409H103.368ZM103.697 110.238C103.592 110.238 103.503 110.204 103.428 110.135C103.354 110.065 103.318 109.981 103.318 109.884C103.318 109.785 103.355 109.701 103.43 109.632C103.505 109.562 103.594 109.528 103.697 109.528C103.801 109.528 103.89 109.562 103.963 109.632C104.038 109.701 104.075 109.785 104.075 109.884C104.075 109.981 104.038 110.065 103.963 110.135C103.89 110.204 103.801 110.238 103.697 110.238ZM106.082 110.632V111.138H104.486V110.632H106.082ZM104.88 109.967H105.534V112.574C105.534 112.661 105.548 112.729 105.574 112.776C105.602 112.822 105.638 112.853 105.683 112.87C105.727 112.887 105.777 112.895 105.831 112.895C105.872 112.895 105.909 112.892 105.943 112.886C105.978 112.88 106.004 112.875 106.023 112.87L106.133 113.382C106.098 113.394 106.048 113.407 105.983 113.421C105.919 113.436 105.841 113.444 105.748 113.447C105.584 113.451 105.436 113.427 105.305 113.373C105.174 113.317 105.069 113.232 104.992 113.116C104.916 113 104.879 112.856 104.88 112.682V109.967ZM108.784 111.366L108.188 111.431C108.171 111.371 108.141 111.314 108.099 111.261C108.058 111.208 108.003 111.165 107.933 111.133C107.863 111.1 107.777 111.084 107.676 111.084C107.54 111.084 107.425 111.113 107.333 111.173C107.241 111.232 107.196 111.308 107.197 111.402C107.196 111.483 107.225 111.549 107.286 111.599C107.347 111.65 107.448 111.691 107.589 111.724L108.063 111.825C108.326 111.882 108.521 111.972 108.649 112.094C108.778 112.217 108.843 112.378 108.844 112.577C108.843 112.752 108.792 112.906 108.69 113.04C108.59 113.172 108.451 113.276 108.273 113.351C108.094 113.426 107.889 113.463 107.658 113.463C107.318 113.463 107.045 113.392 106.837 113.25C106.63 113.106 106.507 112.907 106.467 112.651L107.105 112.59C107.134 112.715 107.195 112.81 107.289 112.874C107.383 112.937 107.506 112.969 107.656 112.969C107.812 112.969 107.936 112.937 108.03 112.874C108.126 112.81 108.173 112.731 108.173 112.637C108.173 112.557 108.143 112.492 108.081 112.44C108.021 112.388 107.927 112.348 107.799 112.32L107.325 112.221C107.059 112.166 106.862 112.072 106.734 111.941C106.607 111.808 106.543 111.641 106.545 111.438C106.543 111.267 106.59 111.119 106.684 110.994C106.779 110.867 106.911 110.769 107.08 110.701C107.25 110.631 107.445 110.596 107.667 110.596C107.992 110.596 108.249 110.665 108.435 110.804C108.623 110.942 108.74 111.13 108.784 111.366Z" fill="white"/>
<circle opacity="0.6" cx="102.774" cy="80.4237" r="12.0514" fill="#FFDE9E"/>
<path d="M98.5464 86.6246C97.8211 85.5971 97.6398 84.2069 97.6398 82.9678C97.6398 81.8496 97.3074 80.7617 96.9447 79.704C96.6425 78.888 96.3705 78.0116 96.4007 77.1352C96.431 76.017 97.0958 74.9593 98.1233 74.506C99.3322 73.962 100.632 74.4757 101.841 74.7477C102.173 74.8082 102.415 74.8686 102.717 74.8686C103.442 74.8384 103.926 74.3246 104.621 74.1433C105.376 73.9318 106.192 73.9922 106.918 74.3246C108.036 74.8384 108.822 76.0472 108.822 77.3165C108.822 78.5858 108.126 79.7342 107.854 80.9732C107.462 82.7865 108.247 86.3224 106.132 87.3196C106.011 87.3801 105.86 87.4103 105.739 87.4103C105.497 87.3801 105.286 87.229 105.165 87.0174C104.832 86.5339 104.681 85.9597 104.5 85.4157C104.319 84.8113 104.137 84.1767 103.865 83.5722C103.624 83.0585 103.231 82.4843 102.566 82.5145C101.931 82.5447 101.478 83.2398 101.266 83.7536C101.025 84.2975 100.964 84.902 100.813 85.5064C100.662 86.2015 100.178 87.229 99.3926 87.229C99.1508 87.229 98.7278 86.8663 98.5464 86.6246Z" fill="#B3E9DD" stroke="#2D3D54" stroke-width="0.669521" stroke-miterlimit="10" stroke-linecap="square"/>
<path d="M100.693 76.1982C99.9679 76.0169 99.2426 76.2285 98.7893 76.712C98.3662 77.1955 98.3359 77.7697 98.3359 77.8906C98.3359 78.2533 98.4266 78.5555 98.487 78.7066" stroke="#2D3D54" stroke-width="0.669521" stroke-miterlimit="10"/>
<path fill-rule="evenodd" clip-rule="evenodd" d="M105.655 74.4157C105.654 74.4158 105.653 74.416 105.652 74.4161C105.652 74.418 105.653 74.4198 105.653 74.4216C105.654 74.4197 105.655 74.4177 105.655 74.4157ZM105.653 75.7372C105.874 76.4749 106.456 77.0567 107.194 77.277C106.456 77.4973 105.874 78.0792 105.653 78.817C105.433 78.0792 104.851 77.4975 104.113 77.2771C104.851 77.0567 105.433 76.4749 105.653 75.7372Z" fill="#2D3D54"/>
<circle opacity="0.6" cx="68.2936" cy="80.4237" r="12.0514" fill="#FFDE9E"/>
<g clip-path="url(#clip1)">
<path d="M70.8881 83.1917L70.5156 88.7926H68.3146H66.1137L65.7412 83.1917L65.7751 84.5413L64.4545 83.2254C64.2175 82.9892 64.082 82.6518 64.082 82.3144V79.6152C64.082 78.4342 64.8608 77.3545 65.9782 77.0171L66.0798 76.9834L68.2808 78.2993L70.4817 76.9834L70.5833 77.0171C71.7346 77.3883 72.4795 78.4342 72.4795 79.6152V82.3144C72.4795 82.6518 72.3441 82.9892 72.107 83.2254L70.8542 84.5413" fill="#A4EBDD"/>
<path d="M70.8516 84.5413L72.1722 83.2592C72.4092 83.023 72.5446 82.6856 72.5446 82.3482V81.3697V79.6489C72.5446 78.468 71.7658 77.3883 70.6484 77.0509L70.5468 77.0172L68.3459 78.333L66.1449 77.0172H66.0095C64.8582 77.3883 64.1133 78.4343 64.1133 79.6152V81.336V82.3144C64.1133 82.6518 64.2487 82.9892 64.4858 83.2254L65.7725 84.5076L65.7386 82.8543L66.1111 88.7589" stroke="#2D3D54" stroke-width="0.669521" stroke-miterlimit="10"/>
<path d="M68.3125 88.7926V85.1824" stroke="#2D3D54" stroke-width="0.669521" stroke-miterlimit="10"/>
<path d="M70.8881 82.888L70.5156 88.7926" stroke="#2D3D54" stroke-width="0.669521" stroke-miterlimit="10"/>
<path d="M74.6487 83.2255V84.4064H73.4297" stroke="#2D3D54" stroke-width="0.669521" stroke-miterlimit="10"/>
<path d="M73.4297 77.3209H74.6487V78.2993" stroke="#2D3D54" stroke-width="0.669521" stroke-miterlimit="10"/>
<path d="M63.1643 84.4064H61.9453V83.2255" stroke="#2D3D54" stroke-width="0.669521" stroke-miterlimit="10"/>
<path d="M61.9453 78.5017V77.3208H63.1643" stroke="#2D3D54" stroke-width="0.669521" stroke-miterlimit="10"/>
<path d="M61.7109 80.8636H74.9167" stroke="#2D3D54" stroke-width="0.669521" stroke-miterlimit="10"/>
<path d="M68.3156 76.4435C69.6246 76.4435 70.6858 75.3861 70.6858 74.0817C70.6858 72.7773 69.6246 71.7198 68.3156 71.7198C67.0065 71.7198 65.9453 72.7773 65.9453 74.0817C65.9453 75.3861 67.0065 76.4435 68.3156 76.4435Z" fill="#2D3D54"/>
</g>
<circle cx="76.3292" cy="72.3895" r="3.01284" fill="white"/>
<path fill-rule="evenodd" clip-rule="evenodd" d="M72.6484 72.3895C72.6484 70.3569 74.2981 68.7072 76.3308 68.7072C78.3635 68.7072 80.0132 70.3569 80.0132 72.3895C80.0132 74.4222 78.3635 76.0719 76.3308 76.0719C74.2981 76.0719 72.6484 74.4222 72.6484 72.3895ZM76.0067 73.8271L78.4082 71.4256L77.9348 70.9521L75.77 73.117L74.7259 72.0729L74.2524 72.5463L75.5333 73.8271L75.77 74.0638L76.0067 73.8271Z" fill="#E06358"/>
<circle opacity="0.6" cx="102.774" cy="46.613" r="12.0514" fill="#FFDE9E"/>
<path d="M97.9863 41.2066V42.4787H96.0781V41.2066C96.0781 40.6977 96.4916 40.2525 97.0322 40.2525C97.0322 40.2525 97.064 40.2525 97.0958 40.2525C97.3184 40.2525 97.541 40.3797 97.7 40.5387C97.859 40.6977 97.9863 40.9522 97.9863 41.2066Z" fill="#2D3D54"/>
<path fill-rule="evenodd" clip-rule="evenodd" d="M97.9842 40.2525H97.0938C97.3164 40.2843 97.539 40.3797 97.698 40.5387C97.8888 40.6977 97.9842 40.9522 97.9842 41.2066V42.4469V52.9734H108.161V41.8426C108.161 40.9522 107.429 40.2525 106.571 40.2525H97.9842ZM101.769 42.6058H102.628C103.01 42.6058 103.328 42.9238 103.328 43.3054C103.328 43.4157 103.307 43.526 103.258 43.624C103.32 43.5184 103.359 43.3961 103.359 43.2737C103.359 42.8921 103.041 42.5741 102.659 42.5741H101.769V42.6058ZM102.959 43.9288C103.018 43.8975 103.073 43.8557 103.12 43.8022C103.115 43.8063 103.11 43.8103 103.105 43.8142C103.063 43.8568 103.013 43.8958 102.959 43.9288Z" fill="#B3E9DD"/>
<path d="M97.9883 42.4469V52.9734H108.165V41.8426C108.165 40.984 107.465 40.2525 106.575 40.2525H97.9883" stroke="#2D3D54" stroke-width="0.669521" stroke-miterlimit="10"/>
<path d="M100.469 50.5563H105.653" stroke="#2D3D54" stroke-width="0.669521" stroke-miterlimit="10"/>
<path d="M101.328 44.7366V46.772" stroke="#2D3D54" stroke-width="0.669521" stroke-miterlimit="10"/>
<path d="M101.328 42.8602H102.505C103.014 42.8602 103.459 43.2736 103.459 43.8142C103.459 44.0687 103.363 44.3231 103.173 44.4821C103.014 44.6411 102.759 44.7683 102.505 44.7683H101.328V42.8602Z" stroke="#2D3D54" stroke-width="0.669521" stroke-miterlimit="10"/>
<path d="M101.328 44.7366L103.554 46.9946L104.795 48.2349" stroke="#2D3D54" stroke-width="0.669521" stroke-miterlimit="10"/>
<path d="M102.312 48.2348L103.553 46.9946L104.761 45.8179" stroke="#2D3D54" stroke-width="0.669521" stroke-miterlimit="10"/>
<path d="M97.9863 42.4469H96.0781V41.2066C96.0781 40.6977 96.4916 40.2525 97.0322 40.2525C97.0322 40.2525 97.064 40.2525 97.0958 40.2525C97.3184 40.2525 97.541 40.3797 97.7 40.5387C97.859 40.6977 97.9863 40.9522 97.9863 41.2066V42.4469Z" stroke="#2D3D54" stroke-width="0.669521" stroke-miterlimit="10"/>
<path d="M97.0977 40.2525H97.9881" stroke="#2D3D54" stroke-width="0.669521" stroke-miterlimit="10"/>
<path opacity="0.6" d="M68.2936 58.6643C74.9493 58.6643 80.3449 53.2687 80.3449 46.613C80.3449 39.9572 74.9493 34.5616 68.2936 34.5616C61.6378 34.5616 56.2422 39.9572 56.2422 46.613C56.2422 53.2687 61.6378 58.6643 68.2936 58.6643Z" fill="#FFDE9E"/>
<path d="M62.6503 47.785L68.2428 53.3616L73.8386 47.785C73.8519 47.7718 73.8651 47.7619 73.8784 47.7487C74.6503 46.9794 75.0379 45.969 75.0379 44.962C75.0379 43.955 74.6503 42.9446 73.8784 42.1753C73.1064 41.406 72.0926 41.0197 71.0821 41.0197C70.0716 41.0197 69.0578 41.406 68.2859 42.1753C68.2726 42.1885 68.2594 42.2017 68.2494 42.2149C68.2362 42.2017 68.2262 42.1885 68.213 42.1753C67.441 41.406 66.4272 41.0197 65.4168 41.0197C64.4063 41.0197 63.3925 41.406 62.6205 42.1753C61.8486 42.9446 61.4609 43.955 61.4609 44.962C61.4609 45.969 61.8486 46.9794 62.6205 47.7487C62.6238 47.7619 62.6338 47.7751 62.6503 47.785Z" fill="#B3E9DD" stroke="#111111" stroke-width="0.669521" stroke-miterlimit="10" stroke-linecap="square"/>
<path d="M64.9258 46.7582H66.6055L67.4272 45.6653L69.0704 47.851L69.8921 46.7582H71.5586" stroke="#111111" stroke-width="0.669521" stroke-miterlimit="10" stroke-linecap="square"/>
<circle cx="76.3292" cy="38.5787" r="3.01284" fill="white"/>
<path d="M73.7249 35.6401C72.285 37.08 72.285 39.4079 73.7249 40.8478C75.1648 42.2877 77.4927 42.2877 78.9326 40.8478C80.3725 39.4079 80.3725 37.08 78.9326 35.6401C77.4927 34.2002 75.1648 34.2002 73.7249 35.6401ZM78.5654 37.8768V38.6111L76.6959 38.6111L76.6959 40.4806L75.9616 40.4806L75.9616 38.6111H74.0921V37.8768H75.9616L75.9616 36.0073L76.6959 36.0073L76.6959 37.8768L78.5654 37.8768Z" fill="#2D3D54"/>
<circle cx="112.818" cy="72.3895" r="3.01284" fill="white"/>
<path d="M109.541 69.7856C108.101 71.2256 108.101 73.5534 109.541 74.9933C110.981 76.4332 113.309 76.4332 114.749 74.9933C116.189 73.5534 116.189 71.2256 114.749 69.7856C113.309 68.3457 110.981 68.3457 109.541 69.7856ZM114.382 72.0223V72.7566L112.512 72.7566L112.512 74.6261L111.778 74.6262L111.778 72.7566H109.908V72.0223H111.778L111.778 70.1528L112.512 70.1528L112.512 72.0223L114.382 72.0223Z" fill="#2D3D54"/>
<circle cx="112.146" cy="38.2439" r="3.01284" fill="white"/>
<path fill-rule="evenodd" clip-rule="evenodd" d="M108.465 38.2439C108.465 36.2112 110.115 34.5615 112.147 34.5615C114.18 34.5615 115.83 36.2112 115.83 38.2439C115.83 40.2766 114.18 41.9262 112.147 41.9262C110.115 41.9262 108.465 40.2766 108.465 38.2439ZM111.822 39.6815L114.224 37.2799L113.75 36.8065L111.586 38.9713L110.541 37.9272L110.068 38.4006L111.349 39.6815L111.586 39.9182L111.822 39.6815Z" fill="#E06358"/>
</g>
<defs>
<clipPath id="clip0">
<rect width="172" height="127" fill="white"/>
</clipPath>
<clipPath id="clip1">
<rect width="14.7295" height="17.0728" fill="white" transform="translate(60.9297 71.72)"/>
</clipPath>
</defs>
</svg>
