<svg width="48" height="49" viewBox="0 0 48 49" fill="none" xmlns="http://www.w3.org/2000/svg">
<circle cx="24" cy="24.3137" r="24" fill="#F9C6B1"/>
<g clip-path="url(#clip0)">
<path d="M24.0007 36.2303C30.582 36.2303 35.9173 30.895 35.9173 24.3136C35.9173 17.7322 30.582 12.397 24.0007 12.397C17.4193 12.397 12.084 17.7322 12.084 24.3136C12.084 30.895 17.4193 36.2303 24.0007 36.2303Z" fill="white"/>
<path d="M24.0007 36.2303C30.582 36.2303 35.9173 30.895 35.9173 24.3136C35.9173 17.7322 30.582 12.397 24.0007 12.397C17.4193 12.397 12.084 17.7322 12.084 24.3136C12.084 30.895 17.4193 36.2303 24.0007 36.2303Z" stroke="#2D3D54" stroke-width="2" stroke-miterlimit="10" stroke-linecap="square"/>
<path d="M24.0013 31.8969C24.5996 31.8969 25.0846 31.4119 25.0846 30.8136C25.0846 30.2152 24.5996 29.7302 24.0013 29.7302C23.403 29.7302 22.918 30.2152 22.918 30.8136C22.918 31.4119 23.403 31.8969 24.0013 31.8969Z" fill="#2D3D54"/>
<path d="M21.834 19.4677C23.6762 18.5755 26.0599 18.6816 26.874 20.1254C27.6881 21.5692 27.1261 23.2485 25.7305 24.5445C24.3349 25.8405 23.8316 26.544 23.8316 27.5636" stroke="#2D3D54" stroke-width="2" stroke-miterlimit="10" stroke-linecap="square"/>
</g>
<defs>
<clipPath id="clip0">
<rect x="11" y="11.3137" width="26" height="26" fill="white"/>
</clipPath>
</defs>
</svg>
