<svg width="114" height="28" viewBox="0 0 114 28" fill="none" xmlns="http://www.w3.org/2000/svg">
<path d="M54.2872 8.26636C54.8641 9.40671 55.1525 10.6762 55.1525 12.0747C55.1525 13.4732 54.8641 14.7427 54.2872 15.883C53.7103 17.0019 52.967 17.8948 52.0572 18.5618C50.2156 19.9388 48.3074 20.6273 46.3326 20.6273H42.1723V24.2743C42.1723 24.7692 42.1501 25.1457 42.1057 25.4039C42.0835 25.6406 41.9837 25.9203 41.8062 26.243C41.4955 26.824 40.6302 27.1144 39.2101 27.1144C37.6569 27.1144 36.7472 26.7164 36.4809 25.9203C36.3478 25.5545 36.2812 24.9951 36.2812 24.242V6.32991C36.2812 5.83504 36.2923 5.46927 36.3145 5.23259C36.3589 4.9744 36.4699 4.68393 36.6474 4.36119C36.958 3.78026 37.8233 3.48979 39.2434 3.48979H46.3659C48.3185 3.48979 50.2156 4.1783 52.0572 5.55533C52.967 6.22233 53.7103 7.126 54.2872 8.26636ZM46.3659 14.9148C47.0316 14.9148 47.6861 14.6781 48.3296 14.2048C48.973 13.7314 49.2948 13.0214 49.2948 12.0747C49.2948 11.128 48.973 10.418 48.3296 9.94461C47.6861 9.44974 47.0205 9.2023 46.3326 9.2023H42.1723V14.9148H46.3659Z" fill="white"/>
<path d="M57.3104 4.9744C57.3104 4.47953 57.3215 4.11375 57.3437 3.87708C57.3881 3.61889 57.4879 3.32842 57.6433 3.00568C57.9539 2.42474 58.8192 2.13428 60.2393 2.13428C61.5928 2.13428 62.436 2.42474 62.7688 3.00568C62.9463 3.32842 63.0461 3.61889 63.0683 3.87708C63.1127 4.13527 63.1349 4.5118 63.1349 5.00667V19.9496C63.1349 20.7242 63.2015 21.219 63.3346 21.4342C63.4677 21.6278 63.7562 21.7247 64.1999 21.7247C64.6659 21.7247 64.9765 21.7462 65.1319 21.7892C65.2872 21.8107 65.4758 21.8968 65.6977 22.0474C66.1414 22.3271 66.3633 23.0909 66.3633 24.3389C66.3633 25.6944 66.1414 26.5227 65.6977 26.824C65.1208 27.2112 63.7451 27.2758 61.5706 27.0176C59.8621 26.8024 58.7527 26.2538 58.2423 25.3716C57.6211 24.3173 57.3104 22.6391 57.3104 20.3369V4.9744Z" fill="white"/>
<path d="M75.6619 27.0822C73.4209 27.0822 71.5571 26.2645 70.0704 24.6293C68.606 22.9726 67.8738 20.9608 67.8738 18.5941V12.9461C67.8738 12.4297 67.8849 12.0532 67.9071 11.8165C67.9514 11.5798 68.0513 11.3001 68.2066 10.9774C68.5172 10.3964 69.3826 10.106 70.8026 10.106C72.3558 10.106 73.2656 10.5148 73.5318 11.3324C73.665 11.6767 73.7315 12.2253 73.7315 12.9784V18.6263C73.7315 19.5085 73.9867 20.197 74.497 20.6919C75.0295 21.1868 75.7285 21.4342 76.5938 21.4342C77.4814 21.4342 78.1914 21.176 78.7239 20.6596C79.2786 20.1432 79.556 19.4655 79.556 18.6263V12.9138C79.556 12.419 79.5671 12.0532 79.5893 11.8165C79.6336 11.5583 79.7446 11.2678 79.9221 10.9451C80.2105 10.3857 81.0648 10.106 82.4849 10.106C83.8827 10.106 84.737 10.3964 85.0476 10.9774C85.203 11.3001 85.2917 11.5906 85.3139 11.8488C85.3583 12.0855 85.3805 12.4512 85.3805 12.9461V24.3711C85.3805 24.8445 85.3583 25.2103 85.3139 25.4684C85.2917 25.7051 85.1919 25.9741 85.0143 26.2753C84.6815 26.8347 83.8273 27.1144 82.4516 27.1144C81.0981 27.1144 80.266 26.8562 79.9554 26.3398C79.7335 25.9741 79.6226 25.533 79.6226 25.0166C79.5338 25.1672 79.3341 25.3824 79.0235 25.6621C78.7128 25.9418 78.4133 26.1785 78.1248 26.3721C77.3704 26.8455 76.5495 27.0822 75.6619 27.0822Z" fill="white"/>
<path d="M93.7825 12.3974C94.8254 10.8698 96.079 10.106 97.5435 10.106C99.8067 10.106 101.493 11.0419 102.602 12.9138C102.846 12.5911 103.135 12.2576 103.468 11.9133C103.823 11.5476 104.377 11.1603 105.132 10.7515C105.886 10.3211 106.663 10.106 107.462 10.106C109.237 10.106 110.723 10.773 111.922 12.107C113.12 13.4195 113.719 15.6033 113.719 18.6586V24.3066C113.719 24.8014 113.697 25.178 113.652 25.4362C113.63 25.6728 113.53 25.9526 113.353 26.2753C113.064 26.8562 112.21 27.1467 110.79 27.1467C109.392 27.1467 108.538 26.8455 108.227 26.243C108.072 25.9203 107.972 25.6406 107.928 25.4039C107.905 25.1457 107.894 24.7692 107.894 24.2743V18.6263C107.894 16.7544 107.207 15.8185 105.831 15.8185C105.054 15.8185 104.522 16.0659 104.233 16.5608C103.967 17.0557 103.834 17.7549 103.834 18.6586V24.3066C103.834 24.823 103.812 25.1995 103.767 25.4362C103.745 25.6728 103.645 25.9526 103.468 26.2753C103.157 26.8562 102.292 27.1467 100.872 27.1467C99.4738 27.1467 98.6196 26.8455 98.309 26.243C98.1536 25.9203 98.0538 25.6406 98.0094 25.4039C97.9872 25.1457 97.9761 24.7692 97.9761 24.2743V18.6263C97.9761 16.7544 97.2883 15.8185 95.9126 15.8185C94.5813 15.8185 93.9156 16.7544 93.9156 18.6263V24.3389C93.9156 24.8337 93.8935 25.2103 93.8491 25.4684C93.8269 25.7051 93.727 25.9848 93.5495 26.3076C93.2167 26.867 92.3514 27.1467 90.9535 27.1467C89.5556 27.1467 88.7014 26.8562 88.3907 26.2753C88.2354 25.9526 88.1356 25.6728 88.0912 25.4362C88.069 25.1995 88.0579 24.823 88.0579 24.3066V12.9461C88.0579 12.4512 88.069 12.0855 88.0912 11.8488C88.1356 11.5906 88.2465 11.3109 88.424 11.0097C88.7568 10.4287 89.5445 10.1383 90.7871 10.1383C92.0296 10.1383 92.8395 10.3319 93.2167 10.7192C93.5939 11.1065 93.7825 11.6659 93.7825 12.3974Z" fill="white"/>
<path d="M9.86542 27.7914C10.8516 27.7914 11.8377 27.6354 12.7622 27.2973C13.6868 27.6094 14.6729 27.7914 15.6591 27.7914C20.9596 27.7914 25.2432 23.0577 25.2432 17.2575C25.2432 11.4574 20.9288 6.72363 15.6591 6.72363C15.1352 6.72363 14.7346 7.06176 14.7346 7.50392C14.7346 7.94609 15.1352 8.28421 15.6591 8.28421C17.5081 8.28421 19.2339 9.03849 20.559 10.313C18.8641 10.2609 17.1383 11.5354 17.7855 13.2781C17.7855 13.3041 17.8163 13.3301 17.8163 13.3561C18.2785 14.5525 18.5251 15.879 18.5251 17.2575C18.5251 20.2747 17.2924 22.9797 15.3817 24.7743L15.3509 24.8003C14.8886 25.2425 14.9195 25.8407 15.2893 26.2309C14.5496 26.2049 13.8408 26.0228 13.1321 25.7627C13.1012 25.7627 13.1012 25.7627 13.0704 25.7367C13.0396 25.7367 13.0396 25.7367 13.0088 25.7107C12.978 25.7107 12.9163 25.6847 12.8855 25.6847H12.8547C12.8239 25.6847 12.7622 25.6847 12.7314 25.6847H12.7006C12.639 25.6847 12.6082 25.6847 12.5465 25.7107H12.5157C12.4541 25.7107 12.4233 25.7367 12.3616 25.7627C11.5604 26.0748 10.7283 26.2309 9.86542 26.2309C5.58182 26.2309 2.13029 22.1994 2.13029 17.2575C2.13029 12.3157 5.61264 8.28421 9.86542 8.28421C10.3893 8.28421 10.7899 7.94609 10.7899 7.50392C10.7899 7.06176 10.3893 6.72363 9.86542 6.72363C4.56485 6.72363 0.28125 11.4574 0.28125 17.2575C0.28125 23.0837 4.59567 27.7914 9.86542 27.7914Z" fill="white"/>
<path d="M8.09202 11.9308C7.62038 11.7748 7.0544 11.9828 6.86575 12.3728C6.174 13.8548 5.82812 15.4408 5.82812 17.1308C5.82812 19.0809 6.33121 20.9789 7.27451 22.6429C7.43172 22.9289 7.77759 23.0849 8.12347 23.0849C8.24924 23.0849 8.40646 23.0589 8.53223 23.0069C9.00387 22.8249 9.19253 22.3569 8.97243 21.9669C8.15491 20.5109 7.71471 18.8469 7.71471 17.1308C7.71471 15.6748 8.02914 14.2188 8.62656 12.9448C8.81522 12.5288 8.56367 12.0868 8.09202 11.9308Z" fill="white"/>
<path d="M12.508 8.06852C13.0194 8.06852 13.4104 7.73046 13.4104 7.2884C13.4104 6.48227 13.5308 5.70216 13.8015 4.94804C14.2227 3.67385 14.9748 2.50367 15.9976 1.51552C16.3285 1.20347 16.2984 0.709398 15.9374 0.423354C15.5764 0.137311 15.0048 0.163315 14.6739 0.475362C13.4706 1.61954 12.5681 3.02375 12.0567 4.53198C11.7559 5.44212 11.6055 6.37826 11.6055 7.3144C11.6055 7.70446 11.9965 8.06852 12.508 8.06852Z" fill="white"/>
<path d="M19.5578 1.95508C20.7906 1.39829 22.2699 1.34767 23.9958 1.77792C23.5643 2.41063 22.7938 3.29642 21.4686 3.85321C20.0509 4.4353 18.2942 4.4353 16.291 3.87852C15.7979 3.75198 15.2739 3.95444 15.1198 4.35938C14.9657 4.76431 15.2123 5.19456 15.7054 5.3211C16.8765 5.65011 18.0168 5.82727 19.0647 5.82727C20.2358 5.82727 21.3145 5.6248 22.3007 5.21986C25.1053 4.08098 26.0915 1.70199 26.1223 1.60076C26.2764 1.22113 26.0299 0.816197 25.5984 0.664346C22.9479 -0.221449 20.6057 -0.221449 18.664 0.664346C18.2326 0.866814 18.0477 1.32237 18.2942 1.70199C18.5716 2.031 19.1263 2.15754 19.5578 1.95508Z" fill="white"/>
</svg>
