<svg width="48" height="48" viewBox="0 0 48 48" fill="none" xmlns="http://www.w3.org/2000/svg">
<circle cx="24" cy="24" r="24" fill="#FFDE9E"/>
<path d="M20.677 25.9971L14.971 29.4181C14.369 29.7791 14 30.4301 14 31.1321V34.0001H34V31.1321C34 30.4291 33.631 29.7781 33.029 29.4171L27.323 25.9961" fill="white"/>
<path d="M24 27C20.686 27 18 24.314 18 21V18C18 14.686 20.686 12 24 12C27.314 12 30 14.686 30 18V21C30 24.314 27.314 27 24 27Z" fill="white"/>
<path fill-rule="evenodd" clip-rule="evenodd" d="M19 18C19 15.2383 21.2383 13 24 13C26.7617 13 29 15.2383 29 18V21C29 23.7617 26.7617 26 24 26C21.2383 26 19 23.7617 19 21V18ZM24 11C20.1337 11 17 14.1337 17 18V21C17 22.8876 17.747 24.6006 18.9615 25.8596L14.4567 28.5604C13.5536 29.1019 13 30.0783 13 31.132V35H35V31.132C35 30.0776 34.4465 29.101 33.5432 28.5593L29.0392 25.8589C30.2533 24.6 31 22.8873 31 21V18C31 14.1337 27.8663 11 24 11ZM27.3236 27.1623C26.3349 27.6967 25.2029 28 24 28C22.7975 28 21.6658 27.6968 20.6772 27.1628L15.4853 30.2756C15.1844 30.456 15 30.7816 15 31.132V33H33V31.132C33 30.7803 32.8154 30.4549 32.5147 30.2746L27.3236 27.1623Z" fill="#2D3D54"/>
</svg>
