<svg width="48" height="48" viewBox="0 0 48 48" fill="none" xmlns="http://www.w3.org/2000/svg">
<circle cx="24" cy="24" r="24" fill="#B3E9DD"/>
<path d="M25 14H13V28H25V14Z" fill="white"/>
<path fill-rule="evenodd" clip-rule="evenodd" d="M13.3906 13.3878H12.3906V14.3878V28.5091V29.5091H13.3906H25.1583H26.1583V28.5091V14.3878V13.3878H25.1583H13.3906ZM14.3906 27.5091V15.3878H24.1583V27.5091H14.3906ZM29.3196 18.1325L28.3571 17.8609L27.8141 19.7858L28.7766 20.0573L33.359 21.3501L29.9974 34.3298L19.546 31.3811L18.5836 31.1096L18.0405 33.0344L19.0029 33.306L30.4377 36.5321L31.4211 36.8096L31.6773 35.8204L35.5405 20.9041L35.7859 19.9567L34.844 19.6909L29.3196 18.1325Z" fill="#2D3D54"/>
</svg>
