<svg width="64" height="64" viewBox="0 0 64 64" fill="none" xmlns="http://www.w3.org/2000/svg">
<path d="M31.9991 63.0303C49.1366 63.0303 63.0294 49.1376 63.0294 32C63.0294 14.8625 49.1366 0.969727 31.9991 0.969727C14.8615 0.969727 0.96875 14.8625 0.96875 32C0.96875 49.1376 14.8615 63.0303 31.9991 63.0303Z" fill="#F9C6B1"/>
<path d="M17.0441 34.125L31.9779 49.1626L46.9118 34.125C48.9632 32.0593 50 29.3272 50 26.6174C50 23.9075 48.9632 21.1754 46.9118 19.1097C44.8603 17.044 42.1471 16 39.4559 16C36.7647 16 34.0515 17.044 32 19.1097C29.9485 17.044 27.2353 16 24.5441 16C21.853 16 19.1397 17.044 17.0882 19.1097C15.0368 21.1754 14 23.9075 14 26.6174C14 29.3272 14.9927 32.0593 17.0441 34.125Z" fill="white" stroke="#182639" stroke-width="2"/>
<path d="M24.1719 30.9527H28.4762L30.3972 27.8438L33.8122 33.3708L35.3063 30.9527H39.824" stroke="#182639" stroke-width="2"/>
</svg>
