<svg width="65" height="64" viewBox="0 0 65 64" fill="none" xmlns="http://www.w3.org/2000/svg">
<path d="M64.02 32.05C64.02 49.66 49.73 63.94 32.12 63.94C14.51 63.94 0.22998 49.65 0.22998 32.04C0.22998 14.43 14.51 0.150024 32.12 0.150024C49.74 0.150024 64.02 14.43 64.02 32.05Z" fill="#FFDE9E"/>
<path d="M26.98 57.73H25.27V57.14C25.27 55.07 25.29 53 25.26 50.92C25.25 50.54 25.14 50.17 24.93 49.84C23.48 47.69 21.98 45.58 20.53 43.44C18.5 40.42 17.2 36.97 16.74 33.37C16.6 32.35 16.9 32.03 17.92 32.03C18.85 32.03 19.78 32.03 20.71 32.03C21.44 32.03 21.64 32.16 21.88 32.88C22.08 33.49 22.2 34.13 22.46 34.71C23.1 36.14 23.73 37.58 24.5 38.94C25.19 40.15 26.06 41.24 26.86 42.39C27.17 42.87 27.7 43.16 28.27 43.17C27.21 41.95 26.78 40.31 27.1 38.73C27.33 37.54 27.98 36.47 28.93 35.73C30.85 34.2 33.58 34.24 35.45 35.83C37.59 37.65 37.79 40.06 36.13 43.27C36.5 43.06 36.98 42.93 37.22 42.61C39.11 40.08 41.01 37.55 41.92 34.45C42.09 33.87 42.27 33.29 42.46 32.71C42.57 32.28 42.98 31.99 43.43 32.03C44.47 32.04 45.5 32.03 46.54 32.03C47.34 32.03 47.67 32.43 47.57 33.22C47.09 37.08 45.66 40.76 43.43 43.94C42.11 45.83 40.82 47.73 39.49 49.61C39.17 50.03 39.01 50.55 39.02 51.09C39.05 53.28 39.03 55.48 39.03 57.71H37.32V57.13C37.32 54.91 37.33 52.7 37.31 50.49C37.3 50.01 37.45 49.54 37.74 49.15C39.22 47.05 40.68 44.93 42.14 42.81C44.02 40.1 45.26 37 45.78 33.74C45.22 33.74 44.69 33.71 44.16 33.76C44.03 33.77 43.85 34.02 43.8 34.18C43.31 36.1 42.51 37.93 41.43 39.6C40.57 40.92 39.68 42.21 38.76 43.48C38.12 44.39 37.06 44.92 35.95 44.88C33.43 44.89 30.91 44.89 28.4 44.88C27.41 44.94 26.46 44.52 25.83 43.76C23.69 41.24 22.01 38.36 20.85 35.26C20.73 34.87 20.64 34.46 20.5 34.08C20.43 33.92 20.29 33.8 20.13 33.75C19.77 33.72 19.42 33.72 19.06 33.73H18.51C18.76 34.76 18.96 35.75 19.25 36.71C19.87 38.8 20.82 40.78 22.05 42.58C23.58 44.8 25.13 47.01 26.64 49.24C26.87 49.59 27 50 27.01 50.42C26.99 52.85 26.98 55.26 26.98 57.73ZM28.7 39.72C28.68 41.61 30.19 43.15 32.08 43.17C32.09 43.17 32.1 43.17 32.11 43.17C34 43.18 35.55 41.66 35.56 39.77C35.57 37.88 34.05 36.33 32.16 36.32C30.27 36.3 28.73 37.81 28.71 39.7C28.7 39.7 28.7 39.71 28.7 39.72Z" fill="black"/>
<path d="M32.21 14.85C33.04 13.98 34.13 13.42 35.31 13.24C37.78 12.76 40.18 14.38 40.66 16.85C40.77 17.4 40.77 17.97 40.67 18.52C40.32 20.45 39.43 22.23 38.09 23.66C36.52 25.47 34.71 27.06 32.72 28.39C32.37 28.67 31.88 28.67 31.54 28.38C29.35 26.93 27.4 25.15 25.74 23.11C24.68 21.87 23.96 20.38 23.65 18.77C23.23 17.04 23.87 15.22 25.28 14.12C26.75 12.98 28.75 12.81 30.39 13.67C31.03 14.03 31.64 14.42 32.21 14.85ZM39 18.05C39 15.9 37.56 14.62 35.64 14.91C34.52 15.04 33.53 15.71 33 16.71C32.81 17.06 32.6 17.34 32.16 17.35C31.7 17.36 31.47 17.07 31.27 16.7C30.84 15.88 30.1 15.28 29.21 15.03C27.72 14.44 26.04 15.17 25.45 16.66C25.22 17.24 25.18 17.88 25.35 18.48C25.5 19.23 25.76 19.95 26.14 20.62C27.63 22.98 29.61 25 31.94 26.53C32.09 26.6 32.25 26.59 32.39 26.5C34.42 25.11 36.21 23.38 37.67 21.39C38.43 20.44 38.89 19.27 39 18.05Z" fill="black"/>
<path d="M21.3 10.33L22.39 9.22998L24.76 11.61L23.68 12.71L21.3 10.33Z" fill="black"/>
<path d="M42.9 10.4L40.61 12.68L39.58 11.55L41.91 9.26001L42.9 10.4Z" fill="black"/>
<path d="M32.95 6.34998H31.32V9.72998H32.95V6.34998Z" fill="black"/>
<path d="M20.96 18.34H17.59V20H20.96V18.34Z" fill="black"/>
<path d="M46.68 18.35H43.32V20.01H46.68V18.35Z" fill="black"/>
<path d="M39 18.06C38.89 19.28 38.43 20.44 37.68 21.41C36.22 23.4 34.43 25.12 32.4 26.52C32.26 26.6 32.1 26.61 31.95 26.55C29.62 25.02 27.64 23 26.15 20.64C25.78 19.97 25.51 19.25 25.36 18.5C24.94 16.96 25.86 15.37 27.4 14.95C28 14.79 28.64 14.82 29.22 15.05C30.11 15.3 30.86 15.9 31.28 16.72C31.48 17.09 31.71 17.38 32.17 17.37C32.61 17.36 32.82 17.07 33.01 16.73C33.54 15.73 34.52 15.06 35.65 14.93C37.55 14.63 39 15.9 39 18.06Z" fill="white"/>
</svg>
