<svg width="48" height="48" viewBox="0 0 48 48" fill="none" xmlns="http://www.w3.org/2000/svg">
<circle cx="24" cy="24" r="24" fill="#F9C6B1"/>
<path d="M31.9596 27.2736C31.9536 27.2855 31.9536 27.2914 31.9477 27.3032C31.6286 28.0714 31.7941 28.9518 32.4145 29.5014L33.2655 30.2636C34.0809 30.9964 34.1105 32.2609 33.3364 33.035L33.035 33.3364C32.2609 34.1105 30.9964 34.075 30.2696 33.2655L29.5014 32.4145C28.9459 31.8 28.0714 31.6345 27.3032 31.9477C27.2973 31.9536 27.2855 31.9536 27.2796 31.9595C26.5173 32.2727 26.015 33.0173 26.0564 33.8445L26.1155 34.9909C26.1745 36.0841 25.3059 37 24.2127 37H23.7814C22.6882 37 21.8195 36.0841 21.8786 34.9909L21.9377 33.8445C21.9791 33.0173 21.4768 32.2786 20.7145 31.9595C20.7086 31.9536 20.6968 31.9536 20.6909 31.9477C19.9286 31.6286 19.0482 31.8 18.4927 32.4145L17.7245 33.2655C16.9918 34.075 15.7273 34.1105 14.9591 33.3364L14.6577 33.035C13.8836 32.2609 13.9191 30.9964 14.7286 30.2636L15.5795 29.5014C16.1941 28.9459 16.3655 28.0655 16.0464 27.3032C16.0405 27.2914 16.0405 27.2855 16.0345 27.2736C15.7214 26.5114 14.9768 26.0091 14.1555 26.0505L13.0091 26.1095C11.9159 26.1686 11 25.3 11 24.2068V23.7814C11 22.6882 11.9159 21.8195 13.0091 21.8786L14.1555 21.9377C14.9827 21.9791 15.7214 21.4768 16.0405 20.7145C16.0464 20.7086 16.0464 20.6968 16.0523 20.6909C16.3714 19.9286 16.2059 19.0482 15.5855 18.4927L14.7345 17.7245C13.9191 16.9918 13.8895 15.7273 14.6636 14.9591L14.965 14.6577C15.7391 13.8836 17.0036 13.9191 17.7305 14.7286L18.4986 15.5855C19.0541 16.2 19.9345 16.3714 20.6968 16.0523C20.7027 16.0464 20.7145 16.0464 20.7205 16.0405C21.4827 15.7273 21.985 14.9827 21.9436 14.1614L21.8845 13.0091C21.8255 11.9159 22.6941 11 23.7873 11H24.2186C25.3118 11 26.1805 11.9159 26.1214 13.0091L26.0623 14.1614C26.0209 14.9886 26.5173 15.7273 27.2855 16.0405C27.2914 16.0464 27.3032 16.0464 27.3091 16.0523C28.0714 16.3714 28.9518 16.2059 29.5073 15.5855L30.2755 14.7286C31.0082 13.9132 32.2727 13.8836 33.0409 14.6577L33.3423 14.9591C34.1164 15.7332 34.0809 16.9977 33.2714 17.7245L32.4205 18.4927C31.8059 19.0482 31.6405 19.9286 31.9536 20.6909C31.9596 20.6968 31.9596 20.7086 31.9655 20.7145C32.2786 21.4827 33.0232 21.9791 33.8505 21.9377L34.9909 21.8786C36.0841 21.8195 37 22.6882 37 23.7814V24.2068C37 25.3 36.0841 26.1686 34.9909 26.1095L33.8505 26.0505C33.0173 26.0091 32.2786 26.5114 31.9596 27.2736Z" fill="white" stroke="#2D3D54" stroke-width="2" stroke-miterlimit="10" stroke-linecap="square"/>
<path d="M21.207 25.4596C22.6135 25.4596 23.7538 24.3194 23.7538 22.9128C23.7538 21.5062 22.6135 20.366 21.207 20.366C19.8004 20.366 18.6602 21.5062 18.6602 22.9128C18.6602 24.3194 19.8004 25.4596 21.207 25.4596Z" fill="#2D3D54"/>
<path d="M26.7077 28.4155C27.6509 28.4155 28.4155 27.6509 28.4155 26.7077C28.4155 25.7646 27.6509 25 26.7077 25C25.7646 25 25 25.7646 25 26.7077C25 27.6509 25.7646 28.4155 26.7077 28.4155Z" fill="#2D3D54"/>
</svg>
