<svg width="48" height="48" viewBox="0 0 48 48" fill="none" xmlns="http://www.w3.org/2000/svg">
<circle cx="24" cy="24" r="24" fill="#FFDE9E"/>
<path d="M30.2992 25L25.2992 39.1C24.8992 40.3 23.1992 40.3 22.6992 39.1L17.6992 25" stroke="#2D3D54" stroke-width="2" stroke-miterlimit="10"/>
<path d="M32 17.1C31.6 13.1 28.2 10 24 10C19.8 10 16.5 13.1 16 17.1C14.3 17.5 13 19.1 13 21C13 23.2 14.8 25 17 25H31C33.2 25 35 23.2 35 21C35 19.1 33.7 17.6 32 17.1Z" fill="white" stroke="#2D3D54" stroke-width="2" stroke-miterlimit="10" stroke-linecap="square"/>
<path d="M16 17.1C16.4 17 16.7 17 17 17C18.5 17 19.8 17.8 20.5 19" stroke="#2D3D54" stroke-width="2" stroke-miterlimit="10"/>
<path d="M32 17.1C31.6 17 31.3 17 31 17C29.5 17 28.2 17.8 27.5 19" stroke="#2D3D54" stroke-width="2" stroke-miterlimit="10"/>
</svg>
